# This file uses centimeters as units for non-parametric coordinates.

mtllib wall.mtl
g default
v -7.505370 -0.975493 7.939704
v -4.508193 -0.975493 7.939704
v -1.511015 -0.975493 7.939704
v 1.486162 -0.975493 7.939704
v 4.483340 -0.975493 7.939704
v 7.480517 -0.975493 7.939704
v -7.505370 1.064937 7.939704
v 7.480517 1.064937 7.939704
v -7.505370 3.105431 7.939704
v 7.480517 3.105431 7.939704
v -7.505370 5.145892 7.939704
v 7.480517 5.145892 7.939704
v -7.505370 7.186386 7.939704
v 7.480517 7.186386 7.939704
v -7.505370 9.226816 7.939704
v -4.508193 9.226816 7.939704
v -1.511015 9.226816 7.939704
v 1.486162 9.226816 7.939704
v 4.483340 9.226816 7.939704
v 7.480517 9.226816 7.939704
v -7.505370 9.226816 4.942527
v -4.508193 9.226816 4.942527
v -1.511015 9.226816 4.942527
v 1.486162 9.226816 4.942527
v 4.483340 9.226816 4.942527
v 7.480517 9.226816 4.942527
v -7.505370 9.226816 1.945350
v -4.508193 9.226816 1.945350
v -1.511015 9.226816 1.945350
v 1.486162 9.226816 1.945350
v 4.483340 9.226816 1.945350
v 7.480517 9.226816 1.945350
v -7.505370 9.226816 -1.051828
v -4.508193 9.226816 -1.051828
v -1.511015 9.226816 -1.051828
v 1.486162 9.226816 -1.051828
v 4.483340 9.226816 -1.051828
v 7.480517 9.226816 -1.051828
v -7.505370 9.226816 -4.049005
v -4.508193 9.226816 -4.049005
v -1.511015 9.226816 -4.049005
v 1.486162 9.226816 -4.049005
v 4.483340 9.226816 -4.049005
v 7.480517 9.226816 -4.049005
v -7.505370 9.226816 -7.046183
v -4.508193 9.226816 -7.046183
v -1.511015 9.226816 -7.046183
v 1.486162 9.226816 -7.046183
v 4.483340 9.226816 -7.046183
v 7.480517 9.226816 -7.046183
v -7.505370 7.186386 -7.046183
v -4.508193 7.186386 -7.046183
v -1.511015 7.186386 -7.046183
v 1.486162 7.186386 -7.046183
v 4.483340 7.186386 -7.046183
v 7.480517 7.186386 -7.046183
v -7.505370 5.145892 -7.046183
v -4.508193 5.145892 -7.046183
v -1.511015 5.145892 -7.046183
v 1.486162 5.145892 -7.046183
v 4.483340 5.145892 -7.046183
v 7.480517 5.145892 -7.046183
v -7.505370 3.105431 -7.046183
v -4.508193 3.105431 -7.046183
v -1.511015 3.105431 -7.046183
v 1.486162 3.105431 -7.046183
v 4.483340 3.105431 -7.046183
v 7.480517 3.105431 -7.046183
v -7.505370 1.064937 -7.046183
v -4.508193 1.064937 -7.046183
v -1.511015 1.064937 -7.046183
v 1.486162 1.064937 -7.046183
v 4.483340 1.064937 -7.046183
v 7.480517 1.064937 -7.046183
v -7.505370 -0.975493 -7.046183
v -4.508193 -0.975493 -7.046183
v -1.511015 -0.975493 -7.046183
v 1.486162 -0.975493 -7.046183
v 4.483340 -0.975493 -7.046183
v 7.480517 -0.975493 -7.046183
v -7.505370 -0.975493 -4.049005
v -4.508193 -0.975493 -4.049005
v -1.511015 -0.975493 -4.049005
v 1.486162 -0.975493 -4.049005
v 4.483340 -0.975493 -4.049005
v 7.480517 -0.975493 -4.049005
v -7.505370 -0.975493 -1.051828
v -4.508193 -0.975493 -1.051828
v -1.511015 -0.975493 -1.051828
v 1.486162 -0.975493 -1.051828
v 4.483340 -0.975493 -1.051828
v 7.480517 -0.975493 -1.051828
v -7.505370 -0.975493 1.945349
v -4.508193 -0.975493 1.945349
v -1.511015 -0.975493 1.945349
v 1.486162 -0.975493 1.945349
v 4.483340 -0.975493 1.945349
v 7.480517 -0.975493 1.945349
v -7.505370 -0.975493 4.942527
v -4.508193 -0.975493 4.942527
v -1.511015 -0.975493 4.942527
v 1.486162 -0.975493 4.942527
v 4.483340 -0.975493 4.942527
v 7.480517 -0.975493 4.942527
v 7.480517 1.064937 -4.049005
v 7.480517 1.064937 -1.051828
v 7.480517 1.064937 1.945349
v 7.480517 1.064937 4.942527
v 7.480517 3.105431 -4.049005
v 7.480517 3.105431 -1.051828
v 7.480517 3.105431 1.945349
v 7.480517 3.105431 4.942527
v 7.480517 5.145892 -4.049005
v 7.480517 5.145892 -1.051828
v 7.480517 5.145892 1.945349
v 7.480517 5.145892 4.942527
v 7.480517 7.186386 -4.049005
v 7.480517 7.186386 -1.051828
v 7.480517 7.186386 1.945349
v 7.480517 7.186386 4.942527
v -7.505370 1.064937 -4.049005
v -7.505370 1.064937 -1.051828
v -7.505370 1.064937 1.945349
v -7.505370 1.064937 4.942527
v -7.505370 3.105431 -4.049005
v -7.505370 3.105431 -1.051828
v -7.505370 3.105431 1.945349
v -7.505370 3.105431 4.942527
v -7.505370 5.145892 -4.049005
v -7.505370 5.145892 -1.051828
v -7.505370 5.145892 1.945349
v -7.505370 5.145892 4.942527
v -7.505370 7.186386 -4.049005
v -7.505370 7.186386 -1.051828
v -7.505370 7.186386 1.945349
v -7.505370 7.186386 4.942527
vt 0.375000 0.000000
vt 0.625000 0.000000
vt 0.375000 0.050000
vt 0.625000 0.050000
vt 0.375000 0.100000
vt 0.625000 0.100000
vt 0.375000 0.150000
vt 0.625000 0.150000
vt 0.375000 0.200000
vt 0.625000 0.200000
vt 0.375000 0.250000
vt 0.425000 0.250000
vt 0.475000 0.250000
vt 0.525000 0.250000
vt 0.575000 0.250000
vt 0.625000 0.250000
vt 0.375000 0.300000
vt 0.425000 0.300000
vt 0.475000 0.300000
vt 0.525000 0.300000
vt 0.575000 0.300000
vt 0.625000 0.300000
vt 0.375000 0.350000
vt 0.425000 0.350000
vt 0.475000 0.350000
vt 0.525000 0.350000
vt 0.575000 0.350000
vt 0.625000 0.350000
vt 0.375000 0.400000
vt 0.425000 0.400000
vt 0.475000 0.400000
vt 0.525000 0.400000
vt 0.575000 0.400000
vt 0.625000 0.400000
vt 0.375000 0.450000
vt 0.425000 0.450000
vt 0.475000 0.450000
vt 0.525000 0.450000
vt 0.575000 0.450000
vt 0.625000 0.450000
vt 0.375000 0.500000
vt 0.425000 0.500000
vt 0.475000 0.500000
vt 0.525000 0.500000
vt 0.575000 0.500000
vt 0.625000 0.500000
vt 0.375000 0.550000
vt 0.425000 0.550000
vt 0.475000 0.550000
vt 0.525000 0.550000
vt 0.575000 0.550000
vt 0.625000 0.550000
vt 0.375000 0.600000
vt 0.425000 0.600000
vt 0.475000 0.600000
vt 0.525000 0.600000
vt 0.575000 0.600000
vt 0.625000 0.600000
vt 0.375000 0.650000
vt 0.425000 0.650000
vt 0.475000 0.650000
vt 0.525000 0.650000
vt 0.575000 0.650000
vt 0.625000 0.650000
vt 0.375000 0.700000
vt 0.425000 0.700000
vt 0.475000 0.700000
vt 0.525000 0.700000
vt 0.575000 0.700000
vt 0.625000 0.700000
vt 0.375000 0.750000
vt 0.425000 0.750000
vt 0.475000 0.750000
vt 0.525000 0.750000
vt 0.575000 0.750000
vt 0.625000 0.750000
vt 0.375000 0.800000
vt 0.425000 0.800000
vt 0.475000 0.800000
vt 0.525000 0.800000
vt 0.575000 0.800000
vt 0.625000 0.800000
vt 0.375000 0.850000
vt 0.425000 0.850000
vt 0.475000 0.850000
vt 0.525000 0.850000
vt 0.575000 0.850000
vt 0.625000 0.850000
vt 0.375000 0.900000
vt 0.425000 0.900000
vt 0.475000 0.900000
vt 0.525000 0.900000
vt 0.575000 0.900000
vt 0.625000 0.900000
vt 0.375000 0.950000
vt 0.425000 0.950000
vt 0.475000 0.950000
vt 0.525000 0.950000
vt 0.575000 0.950000
vt 0.625000 0.950000
vt 0.375000 1.000000
vt 0.425000 1.000000
vt 0.475000 1.000000
vt 0.525000 1.000000
vt 0.575000 1.000000
vt 0.625000 1.000000
vt 0.875000 0.000000
vt 0.825000 0.000000
vt 0.775000 0.000000
vt 0.725000 0.000000
vt 0.675000 0.000000
vt 0.875000 0.050000
vt 0.825000 0.050000
vt 0.775000 0.050000
vt 0.725000 0.050000
vt 0.675000 0.050000
vt 0.875000 0.100000
vt 0.825000 0.100000
vt 0.775000 0.100000
vt 0.725000 0.100000
vt 0.675000 0.100000
vt 0.875000 0.150000
vt 0.825000 0.150000
vt 0.775000 0.150000
vt 0.725000 0.150000
vt 0.675000 0.150000
vt 0.875000 0.200000
vt 0.825000 0.200000
vt 0.775000 0.200000
vt 0.725000 0.200000
vt 0.675000 0.200000
vt 0.875000 0.250000
vt 0.825000 0.250000
vt 0.775000 0.250000
vt 0.725000 0.250000
vt 0.675000 0.250000
vt 0.125000 0.000000
vt 0.175000 0.000000
vt 0.225000 0.000000
vt 0.275000 0.000000
vt 0.325000 0.000000
vt 0.125000 0.050000
vt 0.175000 0.050000
vt 0.225000 0.050000
vt 0.275000 0.050000
vt 0.325000 0.050000
vt 0.125000 0.100000
vt 0.175000 0.100000
vt 0.225000 0.100000
vt 0.275000 0.100000
vt 0.325000 0.100000
vt 0.125000 0.150000
vt 0.175000 0.150000
vt 0.225000 0.150000
vt 0.275000 0.150000
vt 0.325000 0.150000
vt 0.125000 0.200000
vt 0.175000 0.200000
vt 0.225000 0.200000
vt 0.275000 0.200000
vt 0.325000 0.200000
vt 0.125000 0.250000
vt 0.175000 0.250000
vt 0.225000 0.250000
vt 0.275000 0.250000
vt 0.325000 0.250000
vn 0.000000 -1.000000 0.000000
vn 0.000000 -1.000000 0.000000
vn 0.000000 -1.000000 0.000000
vn 0.000000 -1.000000 0.000000
vn 0.000000 -1.000000 0.000000
vn 0.000000 -1.000000 0.000000
vn 0.000000 -1.000000 0.000000
vn 0.000000 -1.000000 0.000000
vn 0.000000 -1.000000 0.000000
vn 0.000000 -1.000000 0.000000
vn 0.000000 -1.000000 0.000000
vn 0.000000 -1.000000 0.000000
vn 0.000000 -1.000000 0.000000
vn 0.000000 -1.000000 0.000000
vn 0.000000 -1.000000 0.000000
vn 0.000000 -1.000000 0.000000
vn 0.000000 -1.000000 0.000000
vn 0.000000 -1.000000 0.000000
vn 0.000000 -1.000000 0.000000
vn 0.000000 -1.000000 0.000000
vn 0.000000 -1.000000 0.000000
vn 0.000000 -1.000000 0.000000
vn 0.000000 -1.000000 0.000000
vn 0.000000 -1.000000 0.000000
vn 0.000000 -1.000000 0.000000
vn 0.000000 -1.000000 0.000000
vn 0.000000 -1.000000 0.000000
vn 0.000000 -1.000000 0.000000
vn 0.000000 -1.000000 0.000000
vn 0.000000 -1.000000 0.000000
vn 0.000000 -1.000000 0.000000
vn 0.000000 -1.000000 0.000000
vn 0.000000 -1.000000 0.000000
vn 0.000000 -1.000000 0.000000
vn 0.000000 -1.000000 0.000000
vn 0.000000 -1.000000 0.000000
vn 0.000000 0.000000 1.000000
vn 0.000000 0.000000 1.000000
vn 0.000000 0.000000 1.000000
vn 0.000000 0.000000 1.000000
vn 0.000000 0.000000 1.000000
vn 0.000000 0.000000 1.000000
vn 0.000000 0.000000 1.000000
vn 0.000000 0.000000 1.000000
vn 0.000000 0.000000 1.000000
vn 0.000000 0.000000 1.000000
vn 0.000000 0.000000 1.000000
vn 0.000000 0.000000 1.000000
vn 0.000000 0.000000 1.000000
vn 0.000000 0.000000 1.000000
vn 0.000000 0.000000 1.000000
vn 0.000000 0.000000 1.000000
vn 0.000000 0.000000 1.000000
vn 0.000000 0.000000 1.000000
vn 0.000000 0.000000 1.000000
vn 0.000000 0.000000 1.000000
vn 0.000000 0.000000 1.000000
vn 0.000000 0.000000 1.000000
vn 0.000000 0.000000 1.000000
vn 0.000000 0.000000 1.000000
vn 0.000000 0.000000 1.000000
vn 0.000000 0.000000 1.000000
vn 0.000000 0.000000 1.000000
vn 0.000000 0.000000 1.000000
vn 0.000000 0.000000 1.000000
vn 0.000000 0.000000 1.000000
vn 0.000000 0.000000 1.000000
vn 0.000000 0.000000 1.000000
vn 0.000000 0.000000 1.000000
vn 0.000000 0.000000 1.000000
vn 0.000000 0.000000 1.000000
vn 0.000000 0.000000 1.000000
vn 0.000000 1.000000 0.000000
vn 0.000000 1.000000 0.000000
vn 0.000000 1.000000 0.000000
vn 0.000000 1.000000 0.000000
vn 0.000000 1.000000 0.000000
vn 0.000000 1.000000 0.000000
vn 0.000000 1.000000 0.000000
vn 0.000000 1.000000 0.000000
vn 0.000000 1.000000 0.000000
vn 0.000000 1.000000 0.000000
vn 0.000000 1.000000 0.000000
vn 0.000000 1.000000 0.000000
vn 0.000000 1.000000 0.000000
vn 0.000000 1.000000 0.000000
vn 0.000000 1.000000 0.000000
vn 0.000000 1.000000 0.000000
vn 0.000000 1.000000 0.000000
vn 0.000000 1.000000 0.000000
vn 0.000000 1.000000 0.000000
vn 0.000000 1.000000 0.000000
vn 0.000000 1.000000 0.000000
vn 0.000000 1.000000 0.000000
vn 0.000000 1.000000 0.000000
vn 0.000000 1.000000 0.000000
vn 0.000000 1.000000 0.000000
vn 0.000000 1.000000 0.000000
vn 0.000000 1.000000 0.000000
vn 0.000000 1.000000 0.000000
vn 0.000000 1.000000 0.000000
vn 0.000000 1.000000 0.000000
vn 0.000000 1.000000 0.000000
vn 0.000000 1.000000 0.000000
vn 0.000000 1.000000 0.000000
vn 0.000000 1.000000 0.000000
vn 0.000000 1.000000 0.000000
vn 0.000000 1.000000 0.000000
vn -1.000000 0.000000 0.000000
vn -1.000000 0.000000 0.000000
vn -1.000000 0.000000 0.000000
vn -1.000000 0.000000 0.000000
vn -1.000000 0.000000 0.000000
vn -1.000000 0.000000 0.000000
vn -1.000000 0.000000 0.000000
vn -1.000000 0.000000 0.000000
vn -1.000000 0.000000 0.000000
vn -1.000000 0.000000 0.000000
vn -1.000000 0.000000 0.000000
vn -1.000000 0.000000 0.000000
vn -1.000000 0.000000 0.000000
vn -1.000000 0.000000 0.000000
vn -1.000000 0.000000 0.000000
vn -1.000000 0.000000 0.000000
vn -1.000000 0.000000 0.000000
vn -1.000000 0.000000 0.000000
vn -1.000000 0.000000 0.000000
vn -1.000000 0.000000 0.000000
vn -1.000000 0.000000 0.000000
vn -1.000000 0.000000 0.000000
vn -1.000000 0.000000 0.000000
vn -1.000000 0.000000 0.000000
vn -1.000000 0.000000 0.000000
vn -1.000000 0.000000 0.000000
vn -1.000000 0.000000 0.000000
vn -1.000000 0.000000 0.000000
vn -1.000000 0.000000 0.000000
vn -1.000000 0.000000 0.000000
vn -1.000000 0.000000 0.000000
vn -1.000000 0.000000 0.000000
vn -1.000000 0.000000 0.000000
vn -1.000000 0.000000 0.000000
vn -1.000000 0.000000 0.000000
vn -1.000000 0.000000 0.000000
vn 1.000000 0.000000 0.000000
vn 1.000000 0.000000 0.000000
vn 1.000000 0.000000 0.000000
vn 1.000000 0.000000 0.000000
vn 1.000000 0.000000 0.000000
vn 1.000000 0.000000 0.000000
vn 1.000000 0.000000 0.000000
vn 1.000000 0.000000 0.000000
vn 1.000000 0.000000 0.000000
vn 1.000000 0.000000 0.000000
vn 1.000000 0.000000 0.000000
vn 1.000000 0.000000 0.000000
vn 1.000000 0.000000 0.000000
vn 1.000000 0.000000 0.000000
vn 1.000000 0.000000 0.000000
vn 1.000000 0.000000 0.000000
vn 1.000000 0.000000 0.000000
vn 1.000000 0.000000 0.000000
vn 1.000000 0.000000 0.000000
vn 1.000000 0.000000 0.000000
vn 1.000000 0.000000 0.000000
vn 1.000000 0.000000 0.000000
vn 1.000000 0.000000 0.000000
vn 1.000000 0.000000 0.000000
vn 1.000000 0.000000 0.000000
vn 1.000000 0.000000 0.000000
vn 1.000000 0.000000 0.000000
vn 1.000000 0.000000 0.000000
vn 1.000000 0.000000 0.000000
vn 1.000000 0.000000 0.000000
vn 1.000000 0.000000 0.000000
vn 1.000000 0.000000 0.000000
vn 1.000000 0.000000 0.000000
vn 1.000000 0.000000 0.000000
vn 1.000000 0.000000 0.000000
vn 1.000000 0.000000 0.000000
s 1
g pCube4
usemtl initialShadingGroup
f 15/11/1 21/17/2 22/18/3 16/12/4
f 16/12/4 22/18/3 23/19/5 17/13/6
f 17/13/6 23/19/5 24/20/7 18/14/8
f 18/14/8 24/20/7 25/21/9 19/15/10
f 19/15/10 25/21/9 26/22/11 20/16/12
f 21/17/2 27/23/13 28/24/14 22/18/3
f 22/18/3 28/24/14 29/25/15 23/19/5
f 23/19/5 29/25/15 30/26/16 24/20/7
f 24/20/7 30/26/16 31/27/17 25/21/9
f 25/21/9 31/27/17 32/28/18 26/22/11
f 27/23/13 33/29/19 34/30/20 28/24/14
f 28/24/14 34/30/20 35/31/21 29/25/15
f 29/25/15 35/31/21 36/32/22 30/26/16
f 30/26/16 36/32/22 37/33/23 31/27/17
f 31/27/17 37/33/23 38/34/24 32/28/18
f 33/29/19 39/35/25 40/36/26 34/30/20
f 34/30/20 40/36/26 41/37/27 35/31/21
f 35/31/21 41/37/27 42/38/28 36/32/22
f 36/32/22 42/38/28 43/39/29 37/33/23
f 37/33/23 43/39/29 44/40/30 38/34/24
f 39/35/25 45/41/31 46/42/32 40/36/26
f 40/36/26 46/42/32 47/43/33 41/37/27
f 41/37/27 47/43/33 48/44/34 42/38/28
f 42/38/28 48/44/34 49/45/35 43/39/29
f 43/39/29 49/45/35 50/46/36 44/40/30
s 2
f 45/41/37 51/47/38 52/48/39 46/42/40
f 46/42/40 52/48/39 53/49/41 47/43/42
f 47/43/42 53/49/41 54/50/43 48/44/44
f 48/44/44 54/50/43 55/51/45 49/45/46
f 49/45/46 55/51/45 56/52/47 50/46/48
f 51/47/38 57/53/49 58/54/50 52/48/39
f 52/48/39 58/54/50 59/55/51 53/49/41
f 53/49/41 59/55/51 60/56/52 54/50/43
f 54/50/43 60/56/52 61/57/53 55/51/45
f 55/51/45 61/57/53 62/58/54 56/52/47
f 57/53/49 63/59/55 64/60/56 58/54/50
f 58/54/50 64/60/56 65/61/57 59/55/51
f 59/55/51 65/61/57 66/62/58 60/56/52
f 60/56/52 66/62/58 67/63/59 61/57/53
f 61/57/53 67/63/59 68/64/60 62/58/54
f 63/59/55 69/65/61 70/66/62 64/60/56
f 64/60/56 70/66/62 71/67/63 65/61/57
f 65/61/57 71/67/63 72/68/64 66/62/58
f 66/62/58 72/68/64 73/69/65 67/63/59
f 67/63/59 73/69/65 74/70/66 68/64/60
f 69/65/61 75/71/67 76/72/68 70/66/62
f 70/66/62 76/72/68 77/73/69 71/67/63
f 71/67/63 77/73/69 78/74/70 72/68/64
f 72/68/64 78/74/70 79/75/71 73/69/65
f 73/69/65 79/75/71 80/76/72 74/70/66
s 3
f 75/71/73 81/77/74 82/78/75 76/72/76
f 76/72/76 82/78/75 83/79/77 77/73/78
f 77/73/78 83/79/77 84/80/79 78/74/80
f 78/74/80 84/80/79 85/81/81 79/75/82
f 79/75/82 85/81/81 86/82/83 80/76/84
f 81/77/74 87/83/85 88/84/86 82/78/75
f 82/78/75 88/84/86 89/85/87 83/79/77
f 83/79/77 89/85/87 90/86/88 84/80/79
f 84/80/79 90/86/88 91/87/89 85/81/81
f 85/81/81 91/87/89 92/88/90 86/82/83
f 87/83/85 93/89/91 94/90/92 88/84/86
f 88/84/86 94/90/92 95/91/93 89/85/87
f 89/85/87 95/91/93 96/92/94 90/86/88
f 90/86/88 96/92/94 97/93/95 91/87/89
f 91/87/89 97/93/95 98/94/96 92/88/90
f 93/89/91 99/95/97 100/96/98 94/90/92
f 94/90/92 100/96/98 101/97/99 95/91/93
f 95/91/93 101/97/99 102/98/100 96/92/94
f 96/92/94 102/98/100 103/99/101 97/93/95
f 97/93/95 103/99/101 104/100/102 98/94/96
f 99/95/97 1/101/103 2/102/104 100/96/98
f 100/96/98 2/102/104 3/103/105 101/97/99
f 101/97/99 3/103/105 4/104/106 102/98/100
f 102/98/100 4/104/106 5/105/107 103/99/101
f 103/99/101 5/105/107 6/106/108 104/100/102
s 4
f 86/108/109 105/113/110 74/112/111 80/107/112
f 92/109/113 106/114/114 105/113/110 86/108/109
f 98/110/115 107/115/116 106/114/114 92/109/113
f 104/111/117 108/116/118 107/115/116 98/110/115
f 6/2/119 8/4/120 108/116/118 104/111/117
f 105/113/110 109/118/121 68/117/122 74/112/111
f 106/114/114 110/119/123 109/118/121 105/113/110
f 107/115/116 111/120/124 110/119/123 106/114/114
f 108/116/118 112/121/125 111/120/124 107/115/116
f 8/4/120 10/6/126 112/121/125 108/116/118
f 109/118/121 113/123/127 62/122/128 68/117/122
f 110/119/123 114/124/129 113/123/127 109/118/121
f 111/120/124 115/125/130 114/124/129 110/119/123
f 112/121/125 116/126/131 115/125/130 111/120/124
f 10/6/126 12/8/132 116/126/131 112/121/125
f 113/123/127 117/128/133 56/127/134 62/122/128
f 114/124/129 118/129/135 117/128/133 113/123/127
f 115/125/130 119/130/136 118/129/135 114/124/129
f 116/126/131 120/131/137 119/130/136 115/125/130
f 12/8/132 14/10/138 120/131/137 116/126/131
f 117/128/133 44/133/139 50/132/140 56/127/134
f 118/129/135 38/134/141 44/133/139 117/128/133
f 119/130/136 32/135/142 38/134/141 118/129/135
f 120/131/137 26/136/143 32/135/142 119/130/136
f 14/10/138 20/16/144 26/136/143 120/131/137
s 5
f 75/137/145 69/142/146 121/143/147 81/138/148
f 81/138/148 121/143/147 122/144/149 87/139/150
f 87/139/150 122/144/149 123/145/151 93/140/152
f 93/140/152 123/145/151 124/146/153 99/141/154
f 99/141/154 124/146/153 7/3/155 1/1/156
f 69/142/146 63/147/157 125/148/158 121/143/147
f 121/143/147 125/148/158 126/149/159 122/144/149
f 122/144/149 126/149/159 127/150/160 123/145/151
f 123/145/151 127/150/160 128/151/161 124/146/153
f 124/146/153 128/151/161 9/5/162 7/3/155
f 63/147/157 57/152/163 129/153/164 125/148/158
f 125/148/158 129/153/164 130/154/165 126/149/159
f 126/149/159 130/154/165 131/155/166 127/150/160
f 127/150/160 131/155/166 132/156/167 128/151/161
f 128/151/161 132/156/167 11/7/168 9/5/162
f 57/152/163 51/157/169 133/158/170 129/153/164
f 129/153/164 133/158/170 134/159/171 130/154/165
f 130/154/165 134/159/171 135/160/172 131/155/166
f 131/155/166 135/160/172 136/161/173 132/156/167
f 132/156/167 136/161/173 13/9/174 11/7/168
f 51/157/169 45/162/175 39/163/176 133/158/170
f 133/158/170 39/163/176 33/164/177 134/159/171
f 134/159/171 33/164/177 27/165/178 135/160/172
f 135/160/172 27/165/178 21/166/179 136/161/173
f 136/161/173 21/166/179 15/11/180 13/9/174
