# This file uses centimeters as units for non-parametric coordinates.

mtllib demo_diamond3.mtl
g default
v 6.275005 0.892000 -4.892423
v 7.126917 0.601826 -4.116868
v 7.372611 0.892000 -2.991313
v 6.868164 1.592541 -2.175094
v 5.909074 2.293082 -2.146339
v 5.057162 2.583256 -2.921894
v 4.811467 2.293082 -4.047449
v 5.315915 1.592541 -4.863669
v 5.391123 0.616326 -3.114706
v 5.561648 2.172468 -4.344917
v 7.178819 1.287789 -3.678046
v 6.487028 1.642924 -4.410395
v 5.871924 2.538914 -2.923508
v 6.797303 2.009370 -2.988988
v 6.102982 1.654235 -4.657456
v 5.985337 2.009370 -4.395355
v 5.721466 2.375817 -3.968398
v 6.932654 1.491137 -4.004712
v 6.772836 1.287789 -4.381229
v 7.061175 1.642924 -3.415944
v 7.083111 1.654235 -2.959822
v 6.295612 2.375817 -2.973946
v 6.541778 2.172468 -2.647281
v 5.465940 2.538915 -3.626690
v 5.849986 2.527603 -3.379631
v 5.587276 0.924617 -4.082962
v 6.093329 0.647779 -3.874282
v 6.400037 0.647779 -3.343048
v 6.327733 0.924617 -2.800453
v 5.918772 1.316126 -2.564339
v 5.412719 1.592964 -2.773019
v 5.106011 1.592964 -3.304253
v 5.178315 1.316126 -3.846848
v 5.008866 1.873339 -4.429814
v 5.029507 1.914802 -4.582337
v 5.066366 2.001789 -4.504523
v 4.953839 2.019883 -4.459904
v 5.743460 1.170092 -4.853936
v 5.846620 1.165200 -4.975355
v 5.820816 1.279533 -4.940109
v 5.702756 1.270281 -4.971041
v 5.429914 2.370610 -2.500949
v 5.498794 2.512501 -2.523523
v 6.338912 1.873339 -2.126106
v 5.504366 2.475628 -2.406949
v 6.337458 2.019883 -2.063407
v 6.432362 2.001789 -2.138548
v 7.073507 1.170092 -2.550227
v 6.481321 1.914802 -2.067720
v 7.154573 1.270279 -2.456424
v 7.186814 1.279532 -2.574133
v 7.203385 0.672819 -3.524865
v 7.230239 1.165200 -2.578856
v 7.349271 0.709453 -3.472105
v 7.320201 0.768820 -3.575114
v 6.652460 0.672821 -4.479091
v 7.312417 0.665927 -3.640939
v 6.807497 0.665929 -4.515481
v 6.754383 0.768822 -4.555134
v 6.679712 0.709455 -4.631812
v 5.376580 2.519154 -2.523281
v 4.871663 2.519154 -3.397823
v 4.878990 2.370610 -3.455177
v 4.834809 2.475628 -3.566657
v 4.932978 2.512501 -3.503544
v 6.378254 2.009370 -3.714804
vt 0.503333 0.250000
vt 0.426777 0.323223
vt 0.396447 0.250000
vt 0.500000 0.353553
vt 0.448223 0.375000
vt 0.375000 0.301777
vt 0.323223 0.426777
vt 0.578125 0.500000
vt 0.547385 0.620919
vt 0.363776 0.453874
vt 0.426276 0.427985
vt 0.500000 0.741837
vt 0.531250 0.500000
vt 0.532270 0.741837
vt 0.500000 1.000000
vt 0.375000 0.198223
vt 0.426777 0.176777
vt 0.250000 0.250000
vt 0.322015 0.323724
vt 0.515625 0.500000
vt 0.500000 0.620919
vt 0.259515 0.297835
vt 0.467730 0.741837
vt 0.468750 0.500000
vt 0.500000 0.146447
vt 0.448223 0.125000
vt 0.323223 0.073223
vt 0.322015 0.176276
vt 0.453125 0.500000
vt 0.452615 0.620919
vt 0.296126 0.113776
vt 0.435459 0.741837
vt 0.406250 0.500000
vt 0.551777 0.125000
vt 0.573223 0.176777
vt 0.500000 0.000000
vt 0.426276 0.072015
vt 0.390625 0.500000
vt 0.405230 0.620919
vt 0.452165 0.009515
vt 0.403189 0.741837
vt 0.343750 0.500000
vt 0.625000 0.198223
vt 0.603553 0.250000
vt 0.676777 0.073223
vt 0.573724 0.072015
vt 0.328125 0.500000
vt 0.357845 0.620919
vt 0.636224 0.046126
vt 0.370919 0.741837
vt 0.281250 0.500000
vt 0.573223 0.323223
vt 0.625000 0.301777
vt 0.750000 0.250000
vt 0.596811 0.741837
vt 0.718750 0.500000
vt 0.629081 0.741837
vt 0.677985 0.176276
vt 0.265625 0.500000
vt 0.689541 0.620919
vt 0.740485 0.202165
vt 0.551777 0.375000
vt 0.500000 0.500000
vt 0.573724 0.427985
vt 0.640625 0.500000
vt 0.594770 0.620919
vt 0.547835 0.490485
vt 0.593750 0.500000
vt 0.564541 0.741837
vt 0.676777 0.426777
vt 0.677985 0.323724
vt 0.703125 0.500000
vt 0.642156 0.620919
vt 0.703874 0.386224
vt 0.656250 0.500000
vt 0.740485 0.297835
vt 0.671875 0.500000
vt 0.703874 0.113776
vt 0.310459 0.620919
vt 0.734375 0.500000
vt 0.547835 0.009515
vt 0.296875 0.500000
vt 0.363776 0.046126
vt 0.359375 0.500000
vt 0.259515 0.202165
vt 0.421875 0.500000
vt 0.296126 0.386224
vt 0.484375 0.500000
vt 0.452165 0.490485
vt 0.546875 0.500000
vt 0.636224 0.453874
vt 0.609375 0.500000
vn 0.552736 0.769834 -0.319122
vn 0.552736 0.769834 -0.319122
vn 0.552736 0.769834 -0.319122
vn 0.354781 0.934084 -0.040225
vn 0.354781 0.934084 -0.040225
vn 0.354781 0.934084 -0.040225
vn 0.589991 0.805411 0.056768
vn 0.589991 0.805412 0.056767
vn 0.589991 0.805412 0.056767
vn 0.376552 0.887798 0.264621
vn 0.376552 0.887798 0.264621
vn 0.376552 0.887798 0.264621
vn 0.376552 0.887798 0.264621
vn -0.546737 0.383796 0.744163
vn -0.546737 0.383796 0.744163
vn -0.546737 0.383796 0.744163
vn -0.546737 0.383796 0.744163
vn -0.502628 -0.310660 0.806756
vn -0.502628 -0.310660 0.806756
vn -0.502628 -0.310660 0.806756
vn -0.502628 -0.310660 0.806756
vn 0.780075 0.623440 -0.052976
vn 0.780075 0.623440 -0.052976
vn 0.780075 0.623440 -0.052976
vn 0.741316 0.621365 0.253684
vn 0.741316 0.621365 0.253684
vn 0.741316 0.621365 0.253684
vn 0.741316 0.621365 0.253684
vn 0.065557 0.048837 0.996653
vn 0.065557 0.048837 0.996653
vn 0.065557 0.048837 0.996653
vn 0.065557 0.048837 0.996653
vn -0.111726 -0.596183 0.795037
vn -0.111726 -0.596183 0.795037
vn -0.111726 -0.596183 0.795037
vn -0.111726 -0.596183 0.795037
vn 0.813680 0.494768 -0.305171
vn 0.813680 0.494768 -0.305171
vn 0.813680 0.494768 -0.305171
vn 0.933167 0.354935 -0.056742
vn 0.933167 0.354935 -0.056742
vn 0.933167 0.354935 -0.056742
vn 0.933167 0.354935 -0.056742
vn 0.560367 -0.424864 0.710971
vn 0.560367 -0.424864 0.710971
vn 0.560367 -0.424864 0.710971
vn 0.560367 -0.424864 0.710971
vn 0.093873 -0.881706 0.462366
vn 0.093873 -0.881706 0.462366
vn 0.093873 -0.881706 0.462366
vn 0.093873 -0.881706 0.462366
vn 0.671124 0.494771 -0.552082
vn 0.671124 0.494771 -0.552082
vn 0.671124 0.494771 -0.552082
vn 0.839724 0.244575 -0.484815
vn 0.839724 0.244575 -0.484815
vn 0.839724 0.244575 -0.484815
vn 0.839724 0.244575 -0.484815
vn 0.647852 -0.759817 0.054465
vn 0.647852 -0.759817 0.054465
vn 0.647852 -0.759817 0.054465
vn 0.647852 -0.759817 0.054465
vn -0.006265 -0.999974 0.003617
vn -0.006265 -0.999974 0.003617
vn -0.006265 -0.999974 0.003617
vn -0.006265 -0.999974 0.003617
vn 0.435916 0.623441 -0.649075
vn 0.435916 0.623441 -0.649075
vn 0.435916 0.623441 -0.649075
vn 0.515723 0.354936 -0.779776
vn 0.515723 0.354936 -0.779776
vn 0.515723 0.354936 -0.779776
vn 0.515723 0.354936 -0.779776
vn 0.276753 -0.759819 -0.588288
vn 0.276753 -0.759819 -0.588288
vn 0.276753 -0.759819 -0.588288
vn 0.276753 -0.759819 -0.588288
vn -0.353484 -0.881706 -0.312479
vn -0.353484 -0.881706 -0.312479
vn -0.353484 -0.881706 -0.312479
vn -0.353484 -0.881706 -0.312479
vn 0.245834 0.805412 -0.539331
vn 0.245834 0.805412 -0.539331
vn 0.245834 0.805412 -0.539331
vn 0.150960 0.621366 -0.768840
vn 0.150959 0.621366 -0.768841
vn 0.150959 0.621366 -0.768841
vn 0.150960 0.621366 -0.768840
vn -0.744385 -0.596183 -0.300760
vn -0.744385 -0.596183 -0.300760
vn -0.744385 -0.596183 -0.300760
vn -0.744385 -0.596183 -0.300760
vn -0.335538 -0.424859 -0.840779
vn -0.335538 -0.424859 -0.840779
vn -0.335538 -0.424859 -0.840779
vn -0.335538 -0.424859 -0.840779
vn 0.212227 0.934083 -0.287138
vn 0.212227 0.934083 -0.287138
vn 0.212227 0.934083 -0.287138
vn 0.052551 0.998157 -0.030338
vn 0.052551 0.998157 -0.030338
vn 0.052552 0.998157 -0.030338
vn 0.052551 0.998157 -0.030338
vn -0.917833 0.383796 0.101410
vn -0.917833 0.383796 0.101410
vn -0.917833 0.383796 0.101410
vn -0.917833 0.383796 0.101410
vn -0.849846 -0.192392 0.490659
vn -0.849846 -0.192392 0.490659
vn -0.849846 -0.192392 0.490659
vn -0.849846 -0.192392 0.490659
vn -0.040892 0.887798 -0.458414
vn -0.040892 0.887798 -0.458414
vn -0.040892 0.887798 -0.458414
vn -0.040892 0.887798 -0.458414
vn -0.830348 0.048839 -0.555100
vn -0.830348 0.048839 -0.555100
vn -0.830348 0.048839 -0.555100
vn -0.830348 0.048839 -0.555100
vn -0.949985 -0.310660 0.031911
vn -0.949985 -0.310660 0.031911
vn -0.949985 -0.310660 0.031911
vn -0.949985 -0.310660 0.031911
vn -0.096098 0.814247 -0.572509
vn -0.096098 0.814247 -0.572509
vn -0.096098 0.814247 -0.572509
vn -0.096098 0.814247 -0.572509
vn 0.012263 0.663762 -0.747843
vn 0.012263 0.663762 -0.747843
vn 0.012263 0.663762 -0.747843
vn 0.012263 0.663762 -0.747843
vn -0.821804 -0.511827 -0.250345
vn -0.821804 -0.511827 -0.250345
vn -0.821804 -0.511827 -0.250345
vn -0.821804 -0.511826 -0.250346
vn -0.927834 -0.364579 -0.078783
vn -0.927834 -0.364579 -0.078783
vn -0.927834 -0.364579 -0.078783
vn -0.927834 -0.364579 -0.078783
vn 0.182416 0.500872 -0.846080
vn 0.182416 0.500872 -0.846080
vn 0.182416 0.500872 -0.846080
vn 0.182416 0.500872 -0.846080
vn 0.388444 0.350384 -0.852257
vn 0.388444 0.350384 -0.852257
vn 0.388444 0.350384 -0.852257
vn 0.388444 0.350384 -0.852257
vn -0.453722 -0.818458 -0.352510
vn -0.453722 -0.818458 -0.352510
vn -0.453722 -0.818458 -0.352510
vn -0.453722 -0.818458 -0.352510
vn -0.655318 -0.671208 -0.346466
vn -0.655318 -0.671208 -0.346466
vn -0.655318 -0.671208 -0.346466
vn -0.655318 -0.671208 -0.346466
vn 0.598990 0.235203 -0.765435
vn 0.598990 0.235203 -0.765435
vn 0.598990 0.235203 -0.765435
vn 0.598990 0.235203 -0.765435
vn 0.781994 0.172869 -0.598834
vn 0.781994 0.172869 -0.598834
vn 0.781994 0.172869 -0.598834
vn 0.781994 0.172869 -0.598834
vn -0.068646 -0.992148 -0.104543
vn -0.068646 -0.992148 -0.104543
vn -0.068646 -0.992148 -0.104543
vn -0.068646 -0.992148 -0.104543
vn -0.247711 -0.931156 -0.267557
vn -0.247711 -0.931156 -0.267557
vn -0.247711 -0.931156 -0.267557
vn -0.247711 -0.931156 -0.267557
vn 0.909601 0.172871 -0.377811
vn 0.909601 0.172871 -0.377811
vn 0.909601 0.172871 -0.377811
vn 0.909601 0.172871 -0.377811
vn 0.962380 0.235205 -0.136024
vn 0.962380 0.235205 -0.136024
vn 0.962380 0.235205 -0.136024
vn 0.962380 0.235205 -0.136024
vn 0.107854 -0.931156 0.348305
vn 0.107854 -0.931156 0.348305
vn 0.107854 -0.931156 0.348305
vn 0.107854 -0.931156 0.348305
vn 0.056211 -0.992149 0.111719
vn 0.056211 -0.992149 0.111719
vn 0.056211 -0.992149 0.111719
vn 0.056211 -0.992149 0.111719
vn 0.932298 0.350385 0.089727
vn 0.932298 0.350385 0.089727
vn 0.932298 0.350385 0.089727
vn 0.932298 0.350385 0.089727
vn 0.823935 0.500872 0.265063
vn 0.823935 0.500872 0.265062
vn 0.823935 0.500872 0.265063
vn 0.823935 0.500872 0.265063
vn -0.027609 -0.671209 0.740754
vn -0.027609 -0.671209 0.740754
vn -0.027609 -0.671209 0.740754
vn -0.027609 -0.671209 0.740754
vn 0.078421 -0.818456 0.569192
vn 0.078421 -0.818456 0.569192
vn 0.078421 -0.818456 0.569192
vn 0.078421 -0.818456 0.569192
vn 0.653785 0.663761 0.363300
vn 0.653785 0.663761 0.363300
vn 0.653785 0.663761 0.363300
vn 0.653785 0.663761 0.363300
vn 0.447757 0.814249 0.369475
vn 0.447757 0.814249 0.369475
vn 0.447757 0.814249 0.369475
vn 0.447757 0.814249 0.369475
vn -0.395691 -0.364578 0.842918
vn -0.395691 -0.364578 0.842918
vn -0.395691 -0.364578 0.842918
vn -0.395691 -0.364578 0.842918
vn -0.194095 -0.511829 0.836874
vn -0.194095 -0.511829 0.836874
vn -0.194095 -0.511829 0.836874
vn -0.194095 -0.511829 0.836874
vn 0.237210 0.929429 0.282654
vn 0.237210 0.929429 0.282654
vn 0.237210 0.929429 0.282654
vn 0.237210 0.929429 0.282654
vn 0.054207 0.991763 0.116054
vn 0.054207 0.991763 0.116054
vn 0.054207 0.991763 0.116054
vn 0.054207 0.991763 0.116054
vn -0.780767 -0.190886 0.594951
vn -0.780767 -0.190886 0.594951
vn -0.780767 -0.190886 0.594951
vn -0.780767 -0.190886 0.594951
vn -0.601700 -0.251880 0.757966
vn -0.601700 -0.251880 0.757966
vn -0.601700 -0.251880 0.757966
vn -0.601700 -0.251880 0.757966
vn -0.073404 0.991763 -0.104972
vn -0.073404 0.991763 -0.104972
vn -0.073404 0.991763 -0.104972
vn -0.073404 0.991763 -0.104972
vn -0.126181 0.929430 -0.346755
vn -0.126181 0.929430 -0.346755
vn -0.126181 0.929430 -0.346755
vn -0.126181 0.929430 -0.346755
vn -0.957269 -0.251879 0.142106
vn -0.957269 -0.251879 0.142106
vn -0.957269 -0.251879 0.142106
vn -0.957269 -0.251879 0.142106
vn -0.905626 -0.190886 0.378688
vn -0.905626 -0.190886 0.378688
vn -0.905626 -0.190886 0.378688
vn -0.905626 -0.190886 0.378688
vn 0.552736 0.769834 -0.319122
vn 0.552736 0.769834 -0.319122
vn 0.552736 0.769834 -0.319122
vn 0.552736 0.769834 -0.319122
vn 0.552736 0.769834 -0.319122
vn 0.552736 0.769834 -0.319122
vn 0.552736 0.769834 -0.319122
vn 0.552736 0.769834 -0.319122
vn 0.552736 0.769834 -0.319122
vn 0.552736 0.769834 -0.319122
vn 0.552736 0.769834 -0.319122
vn 0.552736 0.769834 -0.319122
vn 0.552736 0.769834 -0.319122
vn 0.552736 0.769834 -0.319122
vn 0.552736 0.769834 -0.319122
vn 0.552736 0.769834 -0.319122
vn 0.552736 0.769834 -0.319122
vn 0.552736 0.769834 -0.319122
vn 0.552736 0.769834 -0.319122
vn 0.552736 0.769834 -0.319122
vn 0.552736 0.769834 -0.319122
s off
g Mesh4
usemtl diamond:initialShadingGroup
f 66/1/1 22/2/2 14/3/3
f 22/2/4 25/4/5 13/5/6
f 22/2/7 23/6/8 14/3/9
f 23/6/10 22/2/11 13/5/12 5/7/13
f 61/8/14 42/9/15 45/10/16 43/11/17
f 30/12/18 5/13/19 31/14/20 9/15/21
f 21/16/22 20/17/23 14/3/24
f 23/6/25 4/18/26 21/16/27 14/3/28
f 47/19/29 46/20/30 44/21/31 49/22/32
f 29/23/33 4/24/34 30/12/35 9/15/36
f 18/25/37 20/17/38 11/26/39
f 11/26/40 20/17/41 21/16/42 3/27/43
f 51/28/44 50/29/45 48/30/46 53/31/47
f 28/32/48 3/33/49 29/23/50 9/15/51
f 18/25/52 19/34/53 12/35/54
f 19/34/55 18/25/56 11/26/57 2/36/58
f 55/37/59 54/38/60 52/39/61 57/40/62
f 27/41/63 2/42/64 28/32/65 9/15/66
f 15/43/67 16/44/68 12/35/69
f 19/34/70 1/45/71 15/43/72 12/35/73
f 59/46/74 58/47/75 56/48/76 60/49/77
f 26/50/78 1/51/79 27/41/80 9/15/81
f 17/52/82 16/44/83 10/53/84
f 10/53/85 16/44/86 15/43/87 8/54/88
f 33/55/89 8/56/90 26/57/91 9/15/92
f 40/58/93 39/59/94 38/60/95 41/61/96
f 24/62/97 25/4/98 17/52/99
f 13/5/100 25/4/101 24/62/102 6/63/103
f 65/64/104 64/65/105 63/66/106 62/67/107
f 31/14/108 6/68/109 32/69/110 9/15/111
f 10/53/112 7/70/113 24/62/114 17/52/115
f 36/71/116 35/72/117 34/73/118 37/74/119
f 32/69/120 7/75/121 33/55/122 9/15/123
f 10/53/124 36/71/125 37/74/126 7/70/127
f 35/76/128 36/71/129 10/53/130 8/54/131
f 8/56/132 33/55/133 34/73/134 35/72/135
f 33/55/136 7/75/137 37/77/138 34/73/139
f 15/43/140 40/58/141 41/61/142 8/54/143
f 39/78/144 40/58/145 15/43/146 1/45/147
f 1/51/148 26/50/149 38/79/150 39/59/151
f 26/57/152 8/56/153 41/80/154 38/60/155
f 19/34/156 59/46/157 60/49/158 1/45/159
f 58/81/160 59/46/161 19/34/162 2/36/163
f 2/42/164 27/41/165 56/48/166 58/47/167
f 27/41/168 1/51/169 60/82/170 56/48/171
f 11/26/172 55/37/173 57/40/174 2/36/175
f 54/83/176 55/37/177 11/26/178 3/27/179
f 3/33/180 28/32/181 52/39/182 54/38/183
f 28/32/184 2/42/185 57/84/186 52/39/187
f 21/16/188 51/28/189 53/31/190 3/27/191
f 50/85/192 51/28/193 21/16/194 4/18/195
f 4/24/196 29/23/197 48/30/198 50/29/199
f 29/23/200 3/33/201 53/86/202 48/30/203
f 23/6/204 47/19/205 49/22/206 4/18/207
f 46/87/208 47/19/209 23/6/210 5/7/211
f 5/13/212 30/12/213 44/21/214 46/20/215
f 30/12/216 4/24/217 49/88/218 44/21/219
f 13/5/220 43/11/221 45/10/222 5/7/223
f 61/89/224 43/11/225 13/5/226 6/63/227
f 6/68/228 31/14/229 42/9/230 61/8/231
f 31/14/232 5/13/233 45/90/234 42/9/235
f 24/62/236 65/64/237 62/67/238 6/63/239
f 64/91/240 65/64/241 24/62/242 7/70/243
f 7/75/244 32/69/245 63/66/246 64/65/247
f 32/69/248 6/68/249 62/92/250 63/66/251
f 18/25/252 66/1/253 20/17/254
f 17/52/255 66/1/256 16/44/257
f 25/4/258 66/1/259 17/52/260
f 25/4/261 22/2/262 66/1/263
f 20/17/264 66/1/265 14/3/266
f 12/35/267 66/1/268 18/25/269
f 16/44/270 66/1/271 12/35/272
