# This file uses centimeters as units for non-parametric coordinates.

mtllib demo_diamond4.mtl
g default
v -1.099460 0.892000 -7.880525
v -0.001854 0.601826 -8.230525
v 1.095753 0.892000 -7.880525
v 1.550395 1.592541 -7.035552
v 1.095753 2.293082 -6.190577
v -0.001854 2.583256 -5.840578
v -1.099460 2.293082 -6.190577
v -1.554103 1.592541 -7.035552
v -0.001854 0.616326 -6.226202
v -0.981984 2.172468 -6.988987
v 0.404128 1.287789 -8.056063
v -0.576000 1.642924 -7.823129
v 0.404130 2.538914 -6.546989
v 0.810112 2.009370 -7.381131
v -0.981984 1.654235 -7.614065
v -0.813820 2.009370 -7.381131
v -0.576000 2.375817 -6.939133
v -0.001855 1.491137 -8.006210
v -0.407838 1.287789 -8.056063
v 0.572293 1.642924 -7.823129
v 0.978275 1.654235 -7.614065
v 0.572293 2.375817 -6.939133
v 0.978277 2.172468 -6.988987
v -0.407836 2.538915 -6.546988
v -0.001854 2.527603 -6.756052
v -0.742311 0.924617 -6.880204
v -0.308562 0.647779 -7.214119
v 0.304854 0.647779 -7.214119
v 0.738603 0.924617 -6.880204
v 0.738603 1.316126 -6.407976
v 0.304854 1.592964 -6.074061
v -0.308562 1.592964 -6.074061
v -0.742311 1.316126 -6.407976
v -1.331898 1.873339 -6.552712
v -1.453667 1.914802 -6.646849
v -1.367849 2.001789 -6.639863
v -1.385471 2.019883 -6.520103
v -1.331902 1.170092 -7.400950
v -1.385474 1.165200 -7.550999
v -1.367852 1.279533 -7.511029
v -1.453670 1.270281 -7.424252
v 0.549072 2.370610 -5.952918
v 0.563962 2.512501 -6.023856
v 1.328194 1.873339 -6.552712
v 0.667705 2.475628 -5.970395
v 1.381766 2.019883 -6.520103
v 1.364144 2.001789 -6.639863
v 1.328192 1.170092 -7.400950
v 1.449962 1.914802 -6.646849
v 1.449961 1.270279 -7.424254
v 1.364142 1.279532 -7.511030
v 0.549070 0.672819 -8.000747
v 1.381764 1.165200 -7.550999
v 0.667705 0.709453 -8.100708
v 0.563961 0.768820 -8.127037
v -0.552776 0.672821 -8.000744
v 0.503063 0.665927 -8.153208
v -0.506773 0.665929 -8.153206
v -0.567670 0.768822 -8.127034
v -0.671411 0.709455 -8.100706
v 0.503065 2.519154 -5.917896
v -0.506769 2.519154 -5.917896
v -0.552776 2.370610 -5.952918
v -0.671411 2.475628 -5.970395
v -0.567669 2.512501 -6.023856
v -0.027988 2.009370 -7.381131
vt 0.503333 0.250000
vt 0.426777 0.323223
vt 0.396447 0.250000
vt 0.500000 0.353553
vt 0.448223 0.375000
vt 0.375000 0.301777
vt 0.323223 0.426777
vt 0.578125 0.500000
vt 0.547385 0.620919
vt 0.363776 0.453874
vt 0.426276 0.427985
vt 0.500000 0.741837
vt 0.531250 0.500000
vt 0.532270 0.741837
vt 0.500000 1.000000
vt 0.375000 0.198223
vt 0.426777 0.176777
vt 0.250000 0.250000
vt 0.322015 0.323724
vt 0.515625 0.500000
vt 0.500000 0.620919
vt 0.259515 0.297835
vt 0.467730 0.741837
vt 0.468750 0.500000
vt 0.500000 0.146447
vt 0.448223 0.125000
vt 0.323223 0.073223
vt 0.322015 0.176276
vt 0.453125 0.500000
vt 0.452615 0.620919
vt 0.296126 0.113776
vt 0.435459 0.741837
vt 0.406250 0.500000
vt 0.551777 0.125000
vt 0.573223 0.176777
vt 0.500000 0.000000
vt 0.426276 0.072015
vt 0.390625 0.500000
vt 0.405230 0.620919
vt 0.452165 0.009515
vt 0.403189 0.741837
vt 0.343750 0.500000
vt 0.625000 0.198223
vt 0.603553 0.250000
vt 0.676777 0.073223
vt 0.573724 0.072015
vt 0.328125 0.500000
vt 0.357845 0.620919
vt 0.636224 0.046126
vt 0.370919 0.741837
vt 0.281250 0.500000
vt 0.573223 0.323223
vt 0.625000 0.301777
vt 0.750000 0.250000
vt 0.596811 0.741837
vt 0.718750 0.500000
vt 0.629081 0.741837
vt 0.677985 0.176276
vt 0.265625 0.500000
vt 0.689541 0.620919
vt 0.740485 0.202165
vt 0.551777 0.375000
vt 0.500000 0.500000
vt 0.573724 0.427985
vt 0.640625 0.500000
vt 0.594770 0.620919
vt 0.547835 0.490485
vt 0.593750 0.500000
vt 0.564541 0.741837
vt 0.676777 0.426777
vt 0.677985 0.323724
vt 0.703125 0.500000
vt 0.642156 0.620919
vt 0.703874 0.386224
vt 0.656250 0.500000
vt 0.740485 0.297835
vt 0.671875 0.500000
vt 0.703874 0.113776
vt 0.310459 0.620919
vt 0.734375 0.500000
vt 0.547835 0.009515
vt 0.296875 0.500000
vt 0.363776 0.046126
vt 0.359375 0.500000
vt 0.259515 0.202165
vt 0.421875 0.500000
vt 0.296126 0.386224
vt 0.484375 0.500000
vt 0.452165 0.490485
vt 0.546875 0.500000
vt 0.636224 0.453874
vt 0.609375 0.500000
vn 0.000000 0.769834 -0.638245
vn 0.000000 0.769834 -0.638245
vn 0.000000 0.769834 -0.638245
vn 0.142555 0.934084 -0.327362
vn 0.142555 0.934084 -0.327362
vn 0.142555 0.934084 -0.327362
vn 0.344158 0.805411 -0.482564
vn 0.344157 0.805412 -0.482564
vn 0.344157 0.805412 -0.482564
vn 0.417444 0.887798 -0.193793
vn 0.417444 0.887798 -0.193793
vn 0.417444 0.887798 -0.193793
vn 0.417444 0.887798 -0.193793
vn 0.371096 0.383796 0.845570
vn 0.371096 0.383796 0.845570
vn 0.371096 0.383796 0.845570
vn 0.371096 0.383796 0.845570
vn 0.447357 -0.310660 0.838667
vn 0.447357 -0.310660 0.838667
vn 0.447357 -0.310660 0.838667
vn 0.447357 -0.310660 0.838667
vn 0.344159 0.623440 -0.702052
vn 0.344159 0.623440 -0.702052
vn 0.344159 0.623440 -0.702052
vn 0.590355 0.621365 -0.515157
vn 0.590355 0.621365 -0.515157
vn 0.590355 0.621365 -0.515157
vn 0.590355 0.621365 -0.515157
vn 0.895905 0.048837 0.441553
vn 0.895905 0.048837 0.441553
vn 0.895905 0.048837 0.441553
vn 0.895905 0.048837 0.441553
vn 0.632659 -0.596183 0.494276
vn 0.632659 -0.596183 0.494276
vn 0.632659 -0.596183 0.494276
vn 0.632659 -0.596183 0.494276
vn 0.142554 0.494768 -0.857253
vn 0.142554 0.494768 -0.857253
vn 0.142554 0.494768 -0.857253
vn 0.417444 0.354935 -0.836518
vn 0.417444 0.354935 -0.836518
vn 0.417444 0.354935 -0.836518
vn 0.417444 0.354935 -0.836518
vn 0.895903 -0.424864 -0.129806
vn 0.895903 -0.424864 -0.129806
vn 0.895903 -0.424864 -0.129806
vn 0.895903 -0.424864 -0.129806
vn 0.447357 -0.881706 0.149886
vn 0.447357 -0.881706 0.149886
vn 0.447357 -0.881706 0.149886
vn 0.447357 -0.881706 0.149886
vn -0.142555 0.494771 -0.857251
vn -0.142555 0.494771 -0.857251
vn -0.142555 0.494771 -0.857251
vn 0.000000 0.244575 -0.969630
vn 0.000000 0.244575 -0.969630
vn 0.000000 0.244575 -0.969630
vn 0.000000 0.244575 -0.969630
vn 0.371094 -0.759817 -0.533824
vn 0.371094 -0.759817 -0.533824
vn 0.371094 -0.759817 -0.533824
vn 0.371094 -0.759817 -0.533824
vn 0.000000 -0.999974 0.007234
vn 0.000000 -0.999974 0.007234
vn 0.000000 -0.999974 0.007234
vn 0.000000 -0.999974 0.007234
vn -0.344157 0.623441 -0.702052
vn -0.344157 0.623441 -0.702052
vn -0.344157 0.623441 -0.702052
vn -0.417444 0.354936 -0.836517
vn -0.417444 0.354936 -0.836517
vn -0.417444 0.354936 -0.836517
vn -0.417444 0.354936 -0.836517
vn -0.371096 -0.759819 -0.533819
vn -0.371096 -0.759819 -0.533819
vn -0.371096 -0.759819 -0.533819
vn -0.371096 -0.759819 -0.533819
vn -0.447357 -0.881706 0.149886
vn -0.447357 -0.881706 0.149886
vn -0.447357 -0.881706 0.149886
vn -0.447357 -0.881706 0.149886
vn -0.344157 0.805412 -0.482564
vn -0.344157 0.805412 -0.482564
vn -0.344157 0.805412 -0.482564
vn -0.590355 0.621366 -0.515155
vn -0.590356 0.621366 -0.515155
vn -0.590356 0.621366 -0.515155
vn -0.590355 0.621366 -0.515155
vn -0.632659 -0.596183 0.494276
vn -0.632659 -0.596183 0.494276
vn -0.632659 -0.596183 0.494276
vn -0.632659 -0.596183 0.494276
vn -0.895905 -0.424859 -0.129805
vn -0.895905 -0.424859 -0.129805
vn -0.895905 -0.424859 -0.129805
vn -0.895905 -0.424859 -0.129805
vn -0.142555 0.934083 -0.327363
vn -0.142555 0.934083 -0.327363
vn -0.142555 0.934083 -0.327363
vn 0.000002 0.998157 -0.060680
vn 0.000002 0.998157 -0.060680
vn 0.000002 0.998157 -0.060680
vn 0.000002 0.998157 -0.060680
vn -0.371093 0.383795 0.845571
vn -0.371093 0.383795 0.845571
vn -0.371093 0.383795 0.845571
vn -0.371093 0.383795 0.845571
vn 0.000000 -0.192392 0.981318
vn 0.000000 -0.192392 0.981318
vn 0.000000 -0.192392 0.981318
vn 0.000000 -0.192392 0.981318
vn -0.417444 0.887798 -0.193793
vn -0.417444 0.887798 -0.193793
vn -0.417444 0.887798 -0.193793
vn -0.417444 0.887798 -0.193793
vn -0.895905 0.048839 0.441553
vn -0.895905 0.048839 0.441553
vn -0.895905 0.048839 0.441553
vn -0.895905 0.048839 0.441553
vn -0.447357 -0.310660 0.838667
vn -0.447357 -0.310660 0.838667
vn -0.447357 -0.310660 0.838667
vn -0.447357 -0.310660 0.838667
vn -0.543856 0.814248 -0.203031
vn -0.543856 0.814248 -0.203031
vn -0.543856 0.814248 -0.203031
vn -0.543856 0.814248 -0.203031
vn -0.641520 0.663762 -0.384541
vn -0.641520 0.663762 -0.384541
vn -0.641520 0.663762 -0.384541
vn -0.641520 0.663762 -0.384541
vn -0.627707 -0.511827 0.586530
vn -0.627707 -0.511827 0.586530
vn -0.627707 -0.511827 0.586530
vn -0.627708 -0.511826 0.586530
vn -0.532145 -0.364579 0.764136
vn -0.532145 -0.364579 0.764136
vn -0.532145 -0.364579 0.764136
vn -0.532145 -0.364579 0.764136
vn -0.641519 0.500872 -0.581017
vn -0.641519 0.500872 -0.581017
vn -0.641519 0.500872 -0.581017
vn -0.641519 0.500872 -0.581017
vn -0.543854 0.350384 -0.762531
vn -0.543854 0.350384 -0.762531
vn -0.543854 0.350384 -0.762531
vn -0.543854 0.350384 -0.762531
vn -0.532143 -0.818458 0.216680
vn -0.532144 -0.818458 0.216680
vn -0.532144 -0.818458 0.216680
vn -0.532144 -0.818458 0.216680
vn -0.627707 -0.671208 0.394289
vn -0.627707 -0.671208 0.394289
vn -0.627707 -0.671208 0.394289
vn -0.627707 -0.671208 0.394289
vn -0.363391 0.235203 -0.901458
vn -0.363391 0.235203 -0.901458
vn -0.363391 0.235203 -0.901458
vn -0.363391 0.235203 -0.901458
vn -0.127609 0.172869 -0.976643
vn -0.127609 0.172869 -0.976643
vn -0.127609 0.172869 -0.976643
vn -0.127609 0.172869 -0.976643
vn -0.124860 -0.992148 0.007177
vn -0.124860 -0.992148 0.007177
vn -0.124860 -0.992148 0.007177
vn -0.124860 -0.992148 0.007177
vn -0.355567 -0.931156 0.080746
vn -0.355567 -0.931156 0.080746
vn -0.355567 -0.931156 0.080746
vn -0.355567 -0.931156 0.080746
vn 0.127607 0.172871 -0.976643
vn 0.127607 0.172871 -0.976643
vn 0.127607 0.172871 -0.976643
vn 0.127607 0.172871 -0.976643
vn 0.363390 0.235205 -0.901458
vn 0.363390 0.235205 -0.901458
vn 0.363390 0.235205 -0.901458
vn 0.363390 0.235205 -0.901458
vn 0.355568 -0.931156 0.080748
vn 0.355568 -0.931156 0.080748
vn 0.355568 -0.931156 0.080748
vn 0.355568 -0.931156 0.080748
vn 0.124857 -0.992149 0.007179
vn 0.124857 -0.992149 0.007179
vn 0.124857 -0.992149 0.007179
vn 0.124857 -0.992149 0.007179
vn 0.543855 0.350385 -0.762530
vn 0.543855 0.350385 -0.762530
vn 0.543855 0.350385 -0.762530
vn 0.543855 0.350385 -0.762530
vn 0.641519 0.500872 -0.581017
vn 0.641518 0.500872 -0.581018
vn 0.641519 0.500872 -0.581017
vn 0.641519 0.500872 -0.581017
vn 0.627707 -0.671209 0.394287
vn 0.627707 -0.671209 0.394287
vn 0.627707 -0.671209 0.394287
vn 0.627707 -0.671209 0.394287
vn 0.532145 -0.818456 0.216681
vn 0.532145 -0.818456 0.216681
vn 0.532145 -0.818456 0.216681
vn 0.532145 -0.818456 0.216681
vn 0.641519 0.663761 -0.384544
vn 0.641519 0.663761 -0.384544
vn 0.641519 0.663761 -0.384544
vn 0.641519 0.663761 -0.384544
vn 0.543853 0.814249 -0.203031
vn 0.543853 0.814249 -0.203031
vn 0.543853 0.814249 -0.203031
vn 0.543853 0.814249 -0.203031
vn 0.532143 -0.364578 0.764138
vn 0.532143 -0.364578 0.764138
vn 0.532143 -0.364578 0.764138
vn 0.532143 -0.364578 0.764138
vn 0.627707 -0.511829 0.586528
vn 0.627707 -0.511829 0.586528
vn 0.627707 -0.511829 0.586528
vn 0.627707 -0.511829 0.586528
vn 0.363390 0.929429 -0.064103
vn 0.363390 0.929429 -0.064103
vn 0.363390 0.929429 -0.064103
vn 0.363390 0.929429 -0.064103
vn 0.127609 0.991763 0.011082
vn 0.127609 0.991763 0.011082
vn 0.127609 0.991763 0.011082
vn 0.127609 0.991763 0.011082
vn 0.124859 -0.190886 0.973639
vn 0.124859 -0.190886 0.973639
vn 0.124859 -0.190886 0.973639
vn 0.124859 -0.190886 0.973639
vn 0.355568 -0.251880 0.900071
vn 0.355568 -0.251880 0.900071
vn 0.355568 -0.251880 0.900071
vn 0.355568 -0.251880 0.900071
vn -0.127610 0.991763 0.011084
vn -0.127610 0.991763 0.011084
vn -0.127610 0.991763 0.011084
vn -0.127610 0.991763 0.011084
vn -0.363389 0.929430 -0.064101
vn -0.363389 0.929430 -0.064101
vn -0.363389 0.929430 -0.064101
vn -0.363389 0.929430 -0.064101
vn -0.355567 -0.251879 0.900072
vn -0.355567 -0.251879 0.900072
vn -0.355567 -0.251879 0.900072
vn -0.355567 -0.251879 0.900072
vn -0.124860 -0.190886 0.973639
vn -0.124860 -0.190886 0.973639
vn -0.124860 -0.190886 0.973639
vn -0.124860 -0.190886 0.973639
vn 0.000000 0.769834 -0.638245
vn 0.000000 0.769834 -0.638245
vn 0.000000 0.769834 -0.638245
vn 0.000000 0.769834 -0.638245
vn 0.000000 0.769834 -0.638245
vn 0.000000 0.769834 -0.638245
vn 0.000000 0.769834 -0.638245
vn 0.000000 0.769834 -0.638245
vn 0.000000 0.769834 -0.638245
vn 0.000000 0.769834 -0.638245
vn 0.000000 0.769834 -0.638245
vn 0.000000 0.769834 -0.638245
vn 0.000000 0.769834 -0.638245
vn 0.000000 0.769834 -0.638245
vn 0.000000 0.769834 -0.638245
vn 0.000000 0.769834 -0.638245
vn 0.000000 0.769834 -0.638245
vn 0.000000 0.769834 -0.638245
vn 0.000000 0.769834 -0.638245
vn 0.000000 0.769834 -0.638245
vn 0.000000 0.769834 -0.638245
s off
g Mesh5
usemtl diamond:initialShadingGroup
f 66/1/1 22/2/2 14/3/3
f 22/2/4 25/4/5 13/5/6
f 22/2/7 23/6/8 14/3/9
f 23/6/10 22/2/11 13/5/12 5/7/13
f 61/8/14 42/9/15 45/10/16 43/11/17
f 30/12/18 5/13/19 31/14/20 9/15/21
f 21/16/22 20/17/23 14/3/24
f 23/6/25 4/18/26 21/16/27 14/3/28
f 47/19/29 46/20/30 44/21/31 49/22/32
f 29/23/33 4/24/34 30/12/35 9/15/36
f 18/25/37 20/17/38 11/26/39
f 11/26/40 20/17/41 21/16/42 3/27/43
f 51/28/44 50/29/45 48/30/46 53/31/47
f 28/32/48 3/33/49 29/23/50 9/15/51
f 18/25/52 19/34/53 12/35/54
f 19/34/55 18/25/56 11/26/57 2/36/58
f 55/37/59 54/38/60 52/39/61 57/40/62
f 27/41/63 2/42/64 28/32/65 9/15/66
f 15/43/67 16/44/68 12/35/69
f 19/34/70 1/45/71 15/43/72 12/35/73
f 59/46/74 58/47/75 56/48/76 60/49/77
f 26/50/78 1/51/79 27/41/80 9/15/81
f 17/52/82 16/44/83 10/53/84
f 10/53/85 16/44/86 15/43/87 8/54/88
f 33/55/89 8/56/90 26/57/91 9/15/92
f 40/58/93 39/59/94 38/60/95 41/61/96
f 24/62/97 25/4/98 17/52/99
f 13/5/100 25/4/101 24/62/102 6/63/103
f 65/64/104 64/65/105 63/66/106 62/67/107
f 31/14/108 6/68/109 32/69/110 9/15/111
f 10/53/112 7/70/113 24/62/114 17/52/115
f 36/71/116 35/72/117 34/73/118 37/74/119
f 32/69/120 7/75/121 33/55/122 9/15/123
f 10/53/124 36/71/125 37/74/126 7/70/127
f 35/76/128 36/71/129 10/53/130 8/54/131
f 8/56/132 33/55/133 34/73/134 35/72/135
f 33/55/136 7/75/137 37/77/138 34/73/139
f 15/43/140 40/58/141 41/61/142 8/54/143
f 39/78/144 40/58/145 15/43/146 1/45/147
f 1/51/148 26/50/149 38/79/150 39/59/151
f 26/57/152 8/56/153 41/80/154 38/60/155
f 19/34/156 59/46/157 60/49/158 1/45/159
f 58/81/160 59/46/161 19/34/162 2/36/163
f 2/42/164 27/41/165 56/48/166 58/47/167
f 27/41/168 1/51/169 60/82/170 56/48/171
f 11/26/172 55/37/173 57/40/174 2/36/175
f 54/83/176 55/37/177 11/26/178 3/27/179
f 3/33/180 28/32/181 52/39/182 54/38/183
f 28/32/184 2/42/185 57/84/186 52/39/187
f 21/16/188 51/28/189 53/31/190 3/27/191
f 50/85/192 51/28/193 21/16/194 4/18/195
f 4/24/196 29/23/197 48/30/198 50/29/199
f 29/23/200 3/33/201 53/86/202 48/30/203
f 23/6/204 47/19/205 49/22/206 4/18/207
f 46/87/208 47/19/209 23/6/210 5/7/211
f 5/13/212 30/12/213 44/21/214 46/20/215
f 30/12/216 4/24/217 49/88/218 44/21/219
f 13/5/220 43/11/221 45/10/222 5/7/223
f 61/89/224 43/11/225 13/5/226 6/63/227
f 6/68/228 31/14/229 42/9/230 61/8/231
f 31/14/232 5/13/233 45/90/234 42/9/235
f 24/62/236 65/64/237 62/67/238 6/63/239
f 64/91/240 65/64/241 24/62/242 7/70/243
f 7/75/244 32/69/245 63/66/246 64/65/247
f 32/69/248 6/68/249 62/92/250 63/66/251
f 18/25/252 66/1/253 20/17/254
f 17/52/255 66/1/256 16/44/257
f 25/4/258 66/1/259 17/52/260
f 25/4/261 22/2/262 66/1/263
f 20/17/264 66/1/265 14/3/266
f 12/35/267 66/1/268 18/25/269
f 16/44/270 66/1/271 12/35/272
