# This file uses centimeters as units for non-parametric coordinates.

mtllib demoScene.mtl
g default
v 1.237828 0.657454 -0.997088
v 2.977616 0.657454 -0.997088
v 1.237828 4.370463 -0.997088
v 2.977616 4.370463 -0.997088
v 1.237828 4.370463 -2.736876
v 2.977616 4.370463 -2.736876
v 1.237828 0.657454 -2.736876
v 2.977616 0.657454 -2.736876
vt 0.375000 0.000000
vt 0.625000 0.000000
vt 0.375000 0.250000
vt 0.625000 0.250000
vt 0.375000 0.500000
vt 0.625000 0.500000
vt 0.375000 0.750000
vt 0.625000 0.750000
vt 0.375000 1.000000
vt 0.625000 1.000000
vt 0.875000 0.000000
vt 0.875000 0.250000
vt 0.125000 0.000000
vt 0.125000 0.250000
vn 0.000000 0.000000 1.000000
vn 0.000000 0.000000 1.000000
vn 0.000000 0.000000 1.000000
vn 0.000000 0.000000 1.000000
vn 0.000000 1.000000 0.000000
vn 0.000000 1.000000 0.000000
vn 0.000000 1.000000 0.000000
vn 0.000000 1.000000 0.000000
vn 0.000000 0.000000 -1.000000
vn 0.000000 0.000000 -1.000000
vn 0.000000 0.000000 -1.000000
vn 0.000000 0.000000 -1.000000
vn 0.000000 -1.000000 0.000000
vn 0.000000 -1.000000 0.000000
vn 0.000000 -1.000000 0.000000
vn 0.000000 -1.000000 0.000000
vn 1.000000 0.000000 0.000000
vn 1.000000 0.000000 0.000000
vn 1.000000 0.000000 0.000000
vn 1.000000 0.000000 0.000000
vn -1.000000 0.000000 0.000000
vn -1.000000 0.000000 0.000000
vn -1.000000 0.000000 0.000000
vn -1.000000 0.000000 0.000000
s off
g pCube2
usemtl initialShadingGroup
f 1/1/1 2/2/2 4/4/3 3/3/4
f 3/3/5 4/4/6 6/6/7 5/5/8
f 5/5/9 6/6/10 8/8/11 7/7/12
f 7/7/13 8/8/14 2/10/15 1/9/16
f 2/2/17 8/11/18 6/12/19 4/4/20
f 7/13/21 1/1/22 3/3/23 5/14/24
g default
v -7.405303 -0.795546 8.133335
v 7.405303 -0.795546 8.133335
v -7.405303 9.334609 8.133335
v 7.405303 9.334609 8.133335
v -7.405303 9.334609 -7.191539
v 7.405303 9.334609 -7.191539
v -7.405303 -0.795546 -7.191539
v 7.405303 -0.795546 -7.191539
vt 0.375000 0.000000
vt 0.625000 0.000000
vt 0.375000 0.250000
vt 0.625000 0.250000
vt 0.375000 0.500000
vt 0.625000 0.500000
vt 0.375000 0.750000
vt 0.625000 0.750000
vt 0.375000 1.000000
vt 0.625000 1.000000
vt 0.875000 0.000000
vt 0.875000 0.250000
vt 0.125000 0.000000
vt 0.125000 0.250000
vn 0.000000 -1.000000 0.000000
vn 0.000000 -1.000000 0.000000
vn 0.000000 -1.000000 0.000000
vn 0.000000 -1.000000 0.000000
vn 0.000000 0.000000 1.000000
vn 0.000000 0.000000 1.000000
vn 0.000000 0.000000 1.000000
vn 0.000000 0.000000 1.000000
vn 0.000000 1.000000 0.000000
vn 0.000000 1.000000 0.000000
vn 0.000000 1.000000 0.000000
vn 0.000000 1.000000 0.000000
vn -1.000000 0.000000 0.000000
vn -1.000000 0.000000 0.000000
vn -1.000000 0.000000 0.000000
vn -1.000000 0.000000 0.000000
vn 1.000000 0.000000 0.000000
vn 1.000000 0.000000 0.000000
vn 1.000000 0.000000 0.000000
vn 1.000000 0.000000 0.000000
s off
g pCube3
usemtl initialShadingGroup
f 11/17/25 13/19/26 14/20/27 12/18/28
f 13/19/29 15/21/30 16/22/31 14/20/32
f 15/21/33 9/23/34 10/24/35 16/22/36
f 10/16/37 12/18/38 14/26/39 16/25/40
f 15/27/41 13/28/42 11/17/43 9/15/44
g default
v 1.640542 0.778015 2.999025
v 1.457529 0.778015 2.816012
v 1.207529 0.778015 2.749025
v 0.957529 0.778015 2.816012
v 0.774516 0.778015 2.999025
v 0.707529 0.778015 3.249025
v 0.774516 0.778015 3.499025
v 0.957529 0.778015 3.682038
v 1.207529 0.778015 3.749025
v 1.457529 0.778015 3.682038
v 1.640542 0.778015 3.499025
v 1.707529 0.778015 3.249025
v 1.957529 1.144041 2.816012
v 1.640542 1.144041 2.499025
v 1.207529 1.144041 2.382999
v 0.774516 1.144041 2.499025
v 0.457529 1.144041 2.816012
v 0.341503 1.144041 3.249025
v 0.457529 1.144041 3.682038
v 0.774516 1.144041 3.999025
v 1.207529 1.144041 4.115050
v 1.640542 1.144041 3.999025
v 1.957529 1.144041 3.682038
v 2.073554 1.144041 3.249025
v 2.073554 1.644041 2.749025
v 1.707529 1.644041 2.382999
v 1.207529 1.644041 2.249025
v 0.707529 1.644041 2.382999
v 0.341503 1.644041 2.749025
v 0.207529 1.644041 3.249025
v 0.341503 1.644041 3.749025
v 0.707529 1.644041 4.115050
v 1.207529 1.644041 4.249025
v 1.707529 1.644041 4.115050
v 2.073554 1.644041 3.749025
v 2.207529 1.644041 3.249025
v 1.957529 2.144041 2.816012
v 1.640542 2.144041 2.499025
v 1.207529 2.144041 2.382999
v 0.774516 2.144041 2.499025
v 0.457529 2.144041 2.816012
v 0.341503 2.144041 3.249025
v 0.457529 2.144041 3.682038
v 0.774516 2.144041 3.999025
v 1.207529 2.144041 4.115050
v 1.640542 2.144041 3.999025
v 1.957529 2.144041 3.682038
v 2.073554 2.144041 3.249025
v 1.640542 2.510066 2.999025
v 1.457529 2.510066 2.816012
v 1.207529 2.510066 2.749025
v 0.957529 2.510066 2.816012
v 0.774516 2.510066 2.999025
v 0.707529 2.510066 3.249025
v 0.774516 2.510066 3.499025
v 0.957529 2.510066 3.682038
v 1.207529 2.510066 3.749025
v 1.457529 2.510066 3.682038
v 1.640542 2.510066 3.499025
v 1.707529 2.510066 3.249025
v 1.207529 0.644041 3.249025
v 1.207529 2.644041 3.249025
vt 0.000000 0.166667
vt 0.083333 0.166667
vt 0.166667 0.166667
vt 0.250000 0.166667
vt 0.333333 0.166667
vt 0.416667 0.166667
vt 0.500000 0.166667
vt 0.583333 0.166667
vt 0.666667 0.166667
vt 0.750000 0.166667
vt 0.833333 0.166667
vt 0.916667 0.166667
vt 1.000000 0.166667
vt 0.000000 0.333333
vt 0.083333 0.333333
vt 0.166667 0.333333
vt 0.250000 0.333333
vt 0.333333 0.333333
vt 0.416667 0.333333
vt 0.500000 0.333333
vt 0.583333 0.333333
vt 0.666667 0.333333
vt 0.750000 0.333333
vt 0.833333 0.333333
vt 0.916667 0.333333
vt 1.000000 0.333333
vt 0.000000 0.500000
vt 0.083333 0.500000
vt 0.166667 0.500000
vt 0.250000 0.500000
vt 0.333333 0.500000
vt 0.416667 0.500000
vt 0.500000 0.500000
vt 0.583333 0.500000
vt 0.666667 0.500000
vt 0.750000 0.500000
vt 0.833333 0.500000
vt 0.916667 0.500000
vt 1.000000 0.500000
vt 0.000000 0.666667
vt 0.083333 0.666667
vt 0.166667 0.666667
vt 0.250000 0.666667
vt 0.333333 0.666667
vt 0.416667 0.666667
vt 0.500000 0.666667
vt 0.583333 0.666667
vt 0.666667 0.666667
vt 0.750000 0.666667
vt 0.833333 0.666667
vt 0.916667 0.666667
vt 1.000000 0.666667
vt 0.000000 0.833333
vt 0.083333 0.833333
vt 0.166667 0.833333
vt 0.250000 0.833333
vt 0.333333 0.833333
vt 0.416667 0.833333
vt 0.500000 0.833333
vt 0.583333 0.833333
vt 0.666667 0.833333
vt 0.750000 0.833333
vt 0.833333 0.833333
vt 0.916667 0.833333
vt 1.000000 0.833333
vt 0.041667 0.000000
vt 0.125000 0.000000
vt 0.208333 0.000000
vt 0.291667 0.000000
vt 0.375000 0.000000
vt 0.458333 0.000000
vt 0.541667 0.000000
vt 0.625000 0.000000
vt 0.708333 0.000000
vt 0.791667 0.000000
vt 0.875000 0.000000
vt 0.958333 0.000000
vt 0.041667 1.000000
vt 0.125000 1.000000
vt 0.208333 1.000000
vt 0.291667 1.000000
vt 0.375000 1.000000
vt 0.458333 1.000000
vt 0.541667 1.000000
vt 0.625000 1.000000
vt 0.708333 1.000000
vt 0.791667 1.000000
vt 0.875000 1.000000
vt 0.958333 1.000000
vn 0.508590 -0.694747 -0.508590
vn 0.508590 -0.694747 -0.508590
vn 0.508590 -0.694747 -0.508590
vn 0.508590 -0.694747 -0.508590
vn 0.186157 -0.694747 -0.694747
vn 0.186157 -0.694747 -0.694747
vn 0.186157 -0.694747 -0.694747
vn 0.186157 -0.694747 -0.694747
vn -0.186157 -0.694747 -0.694747
vn -0.186157 -0.694747 -0.694747
vn -0.186157 -0.694747 -0.694747
vn -0.186157 -0.694747 -0.694747
vn -0.508590 -0.694747 -0.508590
vn -0.508590 -0.694747 -0.508590
vn -0.508590 -0.694747 -0.508590
vn -0.508590 -0.694747 -0.508590
vn -0.694747 -0.694747 -0.186157
vn -0.694747 -0.694747 -0.186157
vn -0.694747 -0.694747 -0.186157
vn -0.694747 -0.694747 -0.186157
vn -0.694747 -0.694747 0.186157
vn -0.694746 -0.694747 0.186157
vn -0.694746 -0.694747 0.186157
vn -0.694747 -0.694747 0.186157
vn -0.508590 -0.694747 0.508590
vn -0.508590 -0.694747 0.508590
vn -0.508590 -0.694747 0.508590
vn -0.508590 -0.694747 0.508590
vn -0.186157 -0.694747 0.694747
vn -0.186157 -0.694747 0.694747
vn -0.186157 -0.694747 0.694747
vn -0.186157 -0.694747 0.694747
vn 0.186157 -0.694747 0.694747
vn 0.186157 -0.694747 0.694747
vn 0.186157 -0.694747 0.694747
vn 0.186157 -0.694747 0.694747
vn 0.508590 -0.694747 0.508590
vn 0.508590 -0.694747 0.508590
vn 0.508590 -0.694747 0.508590
vn 0.508590 -0.694747 0.508590
vn 0.694747 -0.694747 0.186157
vn 0.694747 -0.694747 0.186157
vn 0.694747 -0.694747 0.186157
vn 0.694747 -0.694747 0.186157
vn 0.694747 -0.694747 -0.186157
vn 0.694746 -0.694747 -0.186157
vn 0.694746 -0.694747 -0.186157
vn 0.694747 -0.694747 -0.186157
vn 0.684550 -0.250563 -0.684550
vn 0.684550 -0.250563 -0.684550
vn 0.684550 -0.250563 -0.684550
vn 0.684550 -0.250563 -0.684550
vn 0.250563 -0.250563 -0.935113
vn 0.250563 -0.250563 -0.935113
vn 0.250563 -0.250563 -0.935113
vn 0.250563 -0.250563 -0.935113
vn -0.250563 -0.250563 -0.935113
vn -0.250563 -0.250563 -0.935113
vn -0.250563 -0.250563 -0.935113
vn -0.250563 -0.250563 -0.935113
vn -0.684550 -0.250563 -0.684550
vn -0.684550 -0.250563 -0.684550
vn -0.684550 -0.250563 -0.684550
vn -0.684550 -0.250563 -0.684550
vn -0.935113 -0.250563 -0.250563
vn -0.935113 -0.250563 -0.250563
vn -0.935113 -0.250563 -0.250563
vn -0.935113 -0.250563 -0.250563
vn -0.935113 -0.250563 0.250563
vn -0.935113 -0.250563 0.250563
vn -0.935113 -0.250563 0.250563
vn -0.935113 -0.250563 0.250563
vn -0.684550 -0.250563 0.684550
vn -0.684550 -0.250563 0.684550
vn -0.684550 -0.250563 0.684550
vn -0.684550 -0.250563 0.684550
vn -0.250563 -0.250563 0.935113
vn -0.250563 -0.250563 0.935113
vn -0.250563 -0.250563 0.935113
vn -0.250563 -0.250563 0.935113
vn 0.250563 -0.250563 0.935113
vn 0.250563 -0.250563 0.935113
vn 0.250563 -0.250563 0.935113
vn 0.250563 -0.250563 0.935113
vn 0.684550 -0.250563 0.684550
vn 0.684550 -0.250563 0.684550
vn 0.684550 -0.250563 0.684550
vn 0.684550 -0.250563 0.684550
vn 0.935113 -0.250563 0.250563
vn 0.935113 -0.250563 0.250563
vn 0.935113 -0.250563 0.250563
vn 0.935113 -0.250563 0.250563
vn 0.935113 -0.250563 -0.250563
vn 0.935113 -0.250563 -0.250563
vn 0.935113 -0.250563 -0.250563
vn 0.935113 -0.250563 -0.250563
vn 0.684550 0.250563 -0.684550
vn 0.684550 0.250563 -0.684550
vn 0.684550 0.250563 -0.684550
vn 0.684550 0.250563 -0.684550
vn 0.250563 0.250563 -0.935113
vn 0.250563 0.250563 -0.935113
vn 0.250563 0.250563 -0.935113
vn 0.250563 0.250563 -0.935113
vn -0.250563 0.250563 -0.935113
vn -0.250563 0.250563 -0.935113
vn -0.250563 0.250563 -0.935113
vn -0.250563 0.250563 -0.935113
vn -0.684550 0.250563 -0.684550
vn -0.684550 0.250563 -0.684550
vn -0.684550 0.250563 -0.684550
vn -0.684550 0.250563 -0.684550
vn -0.935113 0.250563 -0.250563
vn -0.935113 0.250563 -0.250563
vn -0.935113 0.250563 -0.250563
vn -0.935113 0.250563 -0.250563
vn -0.935113 0.250563 0.250563
vn -0.935113 0.250563 0.250563
vn -0.935113 0.250563 0.250563
vn -0.935113 0.250563 0.250563
vn -0.684550 0.250563 0.684550
vn -0.684550 0.250563 0.684550
vn -0.684550 0.250563 0.684550
vn -0.684550 0.250563 0.684550
vn -0.250563 0.250563 0.935113
vn -0.250563 0.250563 0.935113
vn -0.250563 0.250563 0.935113
vn -0.250563 0.250563 0.935113
vn 0.250563 0.250563 0.935113
vn 0.250563 0.250563 0.935113
vn 0.250563 0.250563 0.935113
vn 0.250563 0.250563 0.935113
vn 0.684550 0.250563 0.684550
vn 0.684550 0.250563 0.684550
vn 0.684550 0.250563 0.684550
vn 0.684550 0.250563 0.684550
vn 0.935113 0.250563 0.250563
vn 0.935113 0.250563 0.250563
vn 0.935113 0.250563 0.250563
vn 0.935113 0.250563 0.250563
vn 0.935113 0.250563 -0.250563
vn 0.935113 0.250563 -0.250563
vn 0.935113 0.250563 -0.250563
vn 0.935113 0.250563 -0.250563
vn 0.508590 0.694747 -0.508590
vn 0.508590 0.694747 -0.508590
vn 0.508590 0.694747 -0.508590
vn 0.508590 0.694747 -0.508590
vn 0.186157 0.694747 -0.694747
vn 0.186157 0.694747 -0.694747
vn 0.186157 0.694747 -0.694747
vn 0.186157 0.694747 -0.694747
vn -0.186157 0.694747 -0.694747
vn -0.186157 0.694747 -0.694747
vn -0.186157 0.694747 -0.694747
vn -0.186157 0.694747 -0.694747
vn -0.508590 0.694747 -0.508590
vn -0.508590 0.694747 -0.508590
vn -0.508590 0.694747 -0.508590
vn -0.508590 0.694747 -0.508590
vn -0.694747 0.694747 -0.186157
vn -0.694747 0.694747 -0.186157
vn -0.694747 0.694747 -0.186157
vn -0.694747 0.694747 -0.186157
vn -0.694747 0.694747 0.186157
vn -0.694746 0.694747 0.186157
vn -0.694746 0.694747 0.186157
vn -0.694747 0.694747 0.186157
vn -0.508590 0.694747 0.508590
vn -0.508590 0.694747 0.508590
vn -0.508590 0.694747 0.508590
vn -0.508590 0.694747 0.508590
vn -0.186157 0.694747 0.694747
vn -0.186157 0.694747 0.694747
vn -0.186157 0.694747 0.694747
vn -0.186157 0.694747 0.694747
vn 0.186157 0.694747 0.694747
vn 0.186157 0.694747 0.694747
vn 0.186157 0.694747 0.694747
vn 0.186157 0.694747 0.694747
vn 0.508590 0.694747 0.508590
vn 0.508590 0.694747 0.508590
vn 0.508590 0.694747 0.508590
vn 0.508590 0.694747 0.508590
vn 0.694747 0.694747 0.186157
vn 0.694747 0.694747 0.186157
vn 0.694747 0.694747 0.186157
vn 0.694747 0.694747 0.186157
vn 0.694747 0.694747 -0.186157
vn 0.694746 0.694747 -0.186157
vn 0.694746 0.694747 -0.186157
vn 0.694747 0.694747 -0.186157
vn 0.189015 -0.963611 -0.189015
vn 0.189015 -0.963611 -0.189015
vn 0.189015 -0.963611 -0.189015
vn 0.069184 -0.963611 -0.258199
vn 0.069184 -0.963611 -0.258199
vn 0.069184 -0.963611 -0.258199
vn -0.069184 -0.963611 -0.258199
vn -0.069184 -0.963611 -0.258199
vn -0.069184 -0.963611 -0.258199
vn -0.189015 -0.963611 -0.189015
vn -0.189015 -0.963611 -0.189015
vn -0.189015 -0.963611 -0.189015
vn -0.258199 -0.963611 -0.069184
vn -0.258199 -0.963611 -0.069184
vn -0.258199 -0.963611 -0.069184
vn -0.258199 -0.963611 0.069184
vn -0.258199 -0.963611 0.069184
vn -0.258199 -0.963611 0.069184
vn -0.189015 -0.963611 0.189015
vn -0.189015 -0.963611 0.189015
vn -0.189015 -0.963611 0.189015
vn -0.069184 -0.963611 0.258199
vn -0.069184 -0.963611 0.258199
vn -0.069184 -0.963611 0.258199
vn 0.069184 -0.963611 0.258199
vn 0.069184 -0.963611 0.258199
vn 0.069184 -0.963611 0.258199
vn 0.189015 -0.963611 0.189015
vn 0.189015 -0.963611 0.189015
vn 0.189015 -0.963611 0.189015
vn 0.258199 -0.963611 0.069184
vn 0.258199 -0.963611 0.069184
vn 0.258199 -0.963611 0.069184
vn 0.258199 -0.963611 -0.069184
vn 0.258199 -0.963611 -0.069184
vn 0.258199 -0.963611 -0.069184
vn 0.189015 0.963611 -0.189015
vn 0.189015 0.963611 -0.189015
vn 0.189015 0.963611 -0.189015
vn 0.069184 0.963611 -0.258199
vn 0.069184 0.963611 -0.258199
vn 0.069184 0.963611 -0.258199
vn -0.069184 0.963611 -0.258199
vn -0.069184 0.963611 -0.258199
vn -0.069184 0.963611 -0.258199
vn -0.189015 0.963611 -0.189015
vn -0.189015 0.963611 -0.189015
vn -0.189015 0.963611 -0.189015
vn -0.258199 0.963611 -0.069184
vn -0.258199 0.963611 -0.069184
vn -0.258199 0.963611 -0.069184
vn -0.258199 0.963611 0.069184
vn -0.258199 0.963611 0.069184
vn -0.258199 0.963611 0.069184
vn -0.189015 0.963611 0.189015
vn -0.189015 0.963611 0.189015
vn -0.189015 0.963611 0.189015
vn -0.069184 0.963611 0.258199
vn -0.069184 0.963611 0.258199
vn -0.069184 0.963611 0.258199
vn 0.069184 0.963611 0.258199
vn 0.069184 0.963611 0.258199
vn 0.069184 0.963611 0.258199
vn 0.189015 0.963611 0.189015
vn 0.189015 0.963611 0.189015
vn 0.189015 0.963611 0.189015
vn 0.258199 0.963611 0.069184
vn 0.258199 0.963611 0.069184
vn 0.258199 0.963611 0.069184
vn 0.258199 0.963611 -0.069184
vn 0.258199 0.963611 -0.069184
vn 0.258199 0.963611 -0.069184
s off
g pSphere1
usemtl initialShadingGroup
f 17/29/45 18/30/46 30/43/47 29/42/48
f 18/30/49 19/31/50 31/44/51 30/43/52
f 19/31/53 20/32/54 32/45/55 31/44/56
f 20/32/57 21/33/58 33/46/59 32/45/60
f 21/33/61 22/34/62 34/47/63 33/46/64
f 22/34/65 23/35/66 35/48/67 34/47/68
f 23/35/69 24/36/70 36/49/71 35/48/72
f 24/36/73 25/37/74 37/50/75 36/49/76
f 25/37/77 26/38/78 38/51/79 37/50/80
f 26/38/81 27/39/82 39/52/83 38/51/84
f 27/39/85 28/40/86 40/53/87 39/52/88
f 28/40/89 17/41/90 29/54/91 40/53/92
f 29/42/93 30/43/94 42/56/95 41/55/96
f 30/43/97 31/44/98 43/57/99 42/56/100
f 31/44/101 32/45/102 44/58/103 43/57/104
f 32/45/105 33/46/106 45/59/107 44/58/108
f 33/46/109 34/47/110 46/60/111 45/59/112
f 34/47/113 35/48/114 47/61/115 46/60/116
f 35/48/117 36/49/118 48/62/119 47/61/120
f 36/49/121 37/50/122 49/63/123 48/62/124
f 37/50/125 38/51/126 50/64/127 49/63/128
f 38/51/129 39/52/130 51/65/131 50/64/132
f 39/52/133 40/53/134 52/66/135 51/65/136
f 40/53/137 29/54/138 41/67/139 52/66/140
f 41/55/141 42/56/142 54/69/143 53/68/144
f 42/56/145 43/57/146 55/70/147 54/69/148
f 43/57/149 44/58/150 56/71/151 55/70/152
f 44/58/153 45/59/154 57/72/155 56/71/156
f 45/59/157 46/60/158 58/73/159 57/72/160
f 46/60/161 47/61/162 59/74/163 58/73/164
f 47/61/165 48/62/166 60/75/167 59/74/168
f 48/62/169 49/63/170 61/76/171 60/75/172
f 49/63/173 50/64/174 62/77/175 61/76/176
f 50/64/177 51/65/178 63/78/179 62/77/180
f 51/65/181 52/66/182 64/79/183 63/78/184
f 52/66/185 41/67/186 53/80/187 64/79/188
f 53/68/189 54/69/190 66/82/191 65/81/192
f 54/69/193 55/70/194 67/83/195 66/82/196
f 55/70/197 56/71/198 68/84/199 67/83/200
f 56/71/201 57/72/202 69/85/203 68/84/204
f 57/72/205 58/73/206 70/86/207 69/85/208
f 58/73/209 59/74/210 71/87/211 70/86/212
f 59/74/213 60/75/214 72/88/215 71/87/216
f 60/75/217 61/76/218 73/89/219 72/88/220
f 61/76/221 62/77/222 74/90/223 73/89/224
f 62/77/225 63/78/226 75/91/227 74/90/228
f 63/78/229 64/79/230 76/92/231 75/91/232
f 64/79/233 53/80/234 65/93/235 76/92/236
f 18/30/237 17/29/238 77/94/239
f 19/31/240 18/30/241 77/95/242
f 20/32/243 19/31/244 77/96/245
f 21/33/246 20/32/247 77/97/248
f 22/34/249 21/33/250 77/98/251
f 23/35/252 22/34/253 77/99/254
f 24/36/255 23/35/256 77/100/257
f 25/37/258 24/36/259 77/101/260
f 26/38/261 25/37/262 77/102/263
f 27/39/264 26/38/265 77/103/266
f 28/40/267 27/39/268 77/104/269
f 17/41/270 28/40/271 77/105/272
f 65/81/273 66/82/274 78/106/275
f 66/82/276 67/83/277 78/107/278
f 67/83/279 68/84/280 78/108/281
f 68/84/282 69/85/283 78/109/284
f 69/85/285 70/86/286 78/110/287
f 70/86/288 71/87/289 78/111/290
f 71/87/291 72/88/292 78/112/293
f 72/88/294 73/89/295 78/113/296
f 73/89/297 74/90/298 78/114/299
f 74/90/300 75/91/301 78/115/302
f 75/91/303 76/92/304 78/116/305
f 76/92/306 65/93/307 78/117/308
g default
v -2.293207 0.665513 0.869894
v -0.553419 0.665513 0.869894
v -2.293207 2.405301 0.869894
v -0.553419 2.405301 0.869894
v -2.293207 2.405301 -0.869894
v -0.553419 2.405301 -0.869894
v -2.293207 0.665513 -0.869894
v -0.553419 0.665513 -0.869894
vt 0.375000 0.000000
vt 0.625000 0.000000
vt 0.375000 0.250000
vt 0.625000 0.250000
vt 0.375000 0.500000
vt 0.625000 0.500000
vt 0.375000 0.750000
vt 0.625000 0.750000
vt 0.375000 1.000000
vt 0.625000 1.000000
vt 0.875000 0.000000
vt 0.875000 0.250000
vt 0.125000 0.000000
vt 0.125000 0.250000
vn 0.000000 0.000000 1.000000
vn 0.000000 0.000000 1.000000
vn 0.000000 0.000000 1.000000
vn 0.000000 0.000000 1.000000
vn 0.000000 1.000000 0.000000
vn 0.000000 1.000000 0.000000
vn 0.000000 1.000000 0.000000
vn 0.000000 1.000000 0.000000
vn 0.000000 0.000000 -1.000000
vn 0.000000 0.000000 -1.000000
vn 0.000000 0.000000 -1.000000
vn 0.000000 0.000000 -1.000000
vn 0.000000 -1.000000 0.000000
vn 0.000000 -1.000000 0.000000
vn 0.000000 -1.000000 0.000000
vn 0.000000 -1.000000 0.000000
vn 1.000000 0.000000 0.000000
vn 1.000000 0.000000 0.000000
vn 1.000000 0.000000 0.000000
vn 1.000000 0.000000 0.000000
vn -1.000000 0.000000 0.000000
vn -1.000000 0.000000 0.000000
vn -1.000000 0.000000 0.000000
vn -1.000000 0.000000 0.000000
s off
g pCube1
usemtl initialShadingGroup
f 79/118/309 80/119/310 82/121/311 81/120/312
f 81/120/313 82/121/314 84/123/315 83/122/316
f 83/122/317 84/123/318 86/125/319 85/124/320
f 85/124/321 86/125/322 80/127/323 79/126/324
f 80/119/325 86/128/326 84/129/327 82/121/328
f 85/130/329 79/118/330 81/120/331 83/131/332
g default
v -6.282532 -0.622811 6.282532
v 6.282532 -0.622811 6.282532
v -6.282532 0.622811 6.282532
v 6.282532 0.622811 6.282532
v -6.282532 0.622811 -6.282532
v 6.282532 0.622811 -6.282532
v -6.282532 -0.622811 -6.282532
v 6.282532 -0.622811 -6.282532
vt 0.375000 0.000000
vt 0.625000 0.000000
vt 0.625000 0.250000
vt 0.375000 0.250000
vt 0.625000 0.500000
vt 0.375000 0.500000
vt 0.625000 0.750000
vt 0.375000 0.750000
vt 0.625000 1.000000
vt 0.375000 1.000000
vt 0.875000 0.000000
vt 0.875000 0.250000
vt 0.125000 0.000000
vt 0.125000 0.250000
vn 0.000000 0.000000 1.000000
vn 0.000000 0.000000 1.000000
vn 0.000000 0.000000 1.000000
vn 0.000000 0.000000 1.000000
vn 0.000000 1.000000 0.000000
vn 0.000000 1.000000 0.000000
vn 0.000000 1.000000 0.000000
vn 0.000000 1.000000 0.000000
vn 0.000000 0.000000 -1.000000
vn 0.000000 0.000000 -1.000000
vn 0.000000 0.000000 -1.000000
vn 0.000000 0.000000 -1.000000
vn 0.000000 -1.000000 0.000000
vn 0.000000 -1.000000 0.000000
vn 0.000000 -1.000000 0.000000
vn 0.000000 -1.000000 0.000000
vn 1.000000 0.000000 0.000000
vn 1.000000 0.000000 0.000000
vn 1.000000 0.000000 0.000000
vn 1.000000 0.000000 0.000000
vn -1.000000 0.000000 0.000000
vn -1.000000 0.000000 0.000000
vn -1.000000 0.000000 0.000000
vn -1.000000 0.000000 0.000000
s off
g table:pCube1
usemtl table:initialShadingGroup
f 87/132/333 88/133/334 90/134/335 89/135/336
f 89/135/337 90/134/338 92/136/339 91/137/340
f 91/137/341 92/136/342 94/138/343 93/139/344
f 93/139/345 94/138/346 88/140/347 87/141/348
f 88/133/349 94/142/350 92/143/351 90/134/352
f 93/144/353 87/132/354 89/135/355 91/145/356
