# This file uses centimeters as units for non-parametric coordinates.

mtllib diamond.mtl
g default
v -1.398649 2.302868 -1.376950
v -0.040827 2.302868 -1.939378
v 1.316995 2.302868 -1.376950
v 1.879422 2.302868 -0.019128
v 1.316995 2.302868 1.338694
v -0.040827 2.302868 1.901122
v -1.398649 2.302868 1.338694
v -1.961077 2.302868 -0.019128
v -0.040827 0.734150 -0.019128
v -1.253323 2.818391 0.483102
v 0.461403 2.818391 -1.231624
v -0.751090 2.972687 -0.729391
v 0.461405 2.818391 1.193366
v 0.963636 2.972687 -0.019128
v -1.253323 2.818391 -0.521361
v -1.045291 2.972687 -0.019128
v -0.751090 2.972687 0.691135
v -0.040829 2.972687 -1.023591
v -0.543060 2.818391 -1.231624
v 0.669436 2.972687 -0.729391
v 1.171666 2.818391 -0.521361
v 0.669436 2.972687 0.691135
v 1.171668 2.818391 0.483102
v -0.543058 2.818391 1.193367
v -0.040827 2.972687 0.985335
v -0.956829 1.544120 -0.398549
v -0.420248 1.544120 -0.935130
v 0.338594 1.544120 -0.935130
v 0.875174 1.544120 -0.398549
v 0.875174 1.544120 0.360293
v 0.338594 1.544120 0.896873
v -0.420248 1.544120 0.896873
v -0.956829 1.544120 0.360293
v -1.686193 2.189055 0.662407
v -1.836830 2.302868 0.605492
v -1.730666 2.380194 0.680827
v -1.752466 2.302868 0.809166
v -1.686197 2.189055 -0.700661
v -1.752470 2.302868 -0.847421
v -1.730670 2.380194 -0.719084
v -1.836834 2.302868 -0.643747
v 0.640709 2.189055 1.626239
v 0.659130 2.380194 1.670713
v 1.604542 2.189055 0.662407
v 0.787467 2.302868 1.692512
v 1.670815 2.302868 0.809166
v 1.649015 2.380194 0.680827
v 1.604540 2.189055 -0.700661
v 1.755179 2.302868 0.605492
v 1.755177 2.302868 -0.643751
v 1.649013 2.380194 -0.719086
v 0.640707 2.189055 -1.664498
v 1.670813 2.302868 -0.847421
v 0.787467 2.302868 -1.730771
v 0.659128 2.380194 -1.708971
v -0.722360 2.189055 -1.664494
v 0.583793 2.302868 -1.815135
v -0.665450 2.302868 -1.815131
v -0.740785 2.380194 -1.708967
v -0.869120 2.302868 -1.730767
v 0.583795 2.302868 1.776876
v -0.665446 2.302868 1.776876
v -0.722360 2.189055 1.626239
v -0.869120 2.302868 1.692512
v -0.740783 2.380194 1.670713
v -0.073157 2.972687 -0.019128
vt 0.500000 0.353553
vt 0.426777 0.323223
vt 0.396447 0.250000
vt 0.426777 0.176777
vt 0.500000 0.146447
vt 0.573223 0.176777
vt 0.603553 0.250000
vt 0.573223 0.323223
vt 0.448223 0.375000
vt 0.375000 0.301777
vt 0.323223 0.426777
vt 0.578125 0.500000
vt 0.547385 0.620919
vt 0.363776 0.453874
vt 0.426276 0.427985
vt 0.500000 0.741837
vt 0.531250 0.500000
vt 0.532270 0.741837
vt 0.500000 1.000000
vt 0.375000 0.198223
vt 0.250000 0.250000
vt 0.322015 0.323724
vt 0.515625 0.500000
vt 0.500000 0.620919
vt 0.259515 0.297835
vt 0.467730 0.741837
vt 0.468750 0.500000
vt 0.448223 0.125000
vt 0.323223 0.073223
vt 0.322015 0.176276
vt 0.453125 0.500000
vt 0.452615 0.620919
vt 0.296126 0.113776
vt 0.435459 0.741837
vt 0.406250 0.500000
vt 0.551777 0.125000
vt 0.500000 0.000000
vt 0.426276 0.072015
vt 0.390625 0.500000
vt 0.405230 0.620919
vt 0.452165 0.009515
vt 0.403189 0.741837
vt 0.343750 0.500000
vt 0.625000 0.198223
vt 0.676777 0.073223
vt 0.573724 0.072015
vt 0.328125 0.500000
vt 0.357845 0.620919
vt 0.636224 0.046126
vt 0.370919 0.741837
vt 0.281250 0.500000
vt 0.625000 0.301777
vt 0.750000 0.250000
vt 0.596811 0.741837
vt 0.718750 0.500000
vt 0.629081 0.741837
vt 0.677985 0.176276
vt 0.265625 0.500000
vt 0.689541 0.620919
vt 0.740485 0.202165
vt 0.551777 0.375000
vt 0.500000 0.500000
vt 0.573724 0.427985
vt 0.640625 0.500000
vt 0.594770 0.620919
vt 0.547835 0.490485
vt 0.593750 0.500000
vt 0.564541 0.741837
vt 0.676777 0.426777
vt 0.677985 0.323724
vt 0.703125 0.500000
vt 0.642156 0.620919
vt 0.703874 0.386224
vt 0.656250 0.500000
vt 0.740485 0.297835
vt 0.671875 0.500000
vt 0.703874 0.113776
vt 0.310459 0.620919
vt 0.734375 0.500000
vt 0.547835 0.009515
vt 0.296875 0.500000
vt 0.363776 0.046126
vt 0.359375 0.500000
vt 0.259515 0.202165
vt 0.421875 0.500000
vt 0.296126 0.386224
vt 0.484375 0.500000
vt 0.452165 0.490485
vt 0.546875 0.500000
vt 0.636224 0.453874
vt 0.609375 0.500000
vt 0.503333 0.250000
vn 0.000000 1.000000 0.000000
vn 0.000000 1.000000 0.000000
vn 0.000000 1.000000 0.000000
vn 0.142555 0.928026 0.344160
vn 0.142555 0.928026 0.344160
vn 0.142555 0.928026 0.344160
vn 0.344158 0.928026 0.142556
vn 0.344157 0.928027 0.142556
vn 0.344157 0.928027 0.142556
vn 0.417444 0.807144 0.417444
vn 0.417444 0.807144 0.417444
vn 0.417444 0.807144 0.417444
vn 0.417444 0.807144 0.417444
vn 0.371096 -0.244222 0.895904
vn 0.371096 -0.244222 0.895904
vn 0.371096 -0.244222 0.895904
vn 0.371096 -0.244222 0.895904
vn 0.447357 -0.774431 0.447357
vn 0.447357 -0.774431 0.447357
vn 0.447357 -0.774431 0.447357
vn 0.447357 -0.774431 0.447357
vn 0.344159 0.928026 -0.142556
vn 0.344159 0.928026 -0.142556
vn 0.344159 0.928026 -0.142556
vn 0.590355 0.807143 -0.000002
vn 0.590355 0.807143 -0.000002
vn 0.590355 0.807144 -0.000002
vn 0.590355 0.807143 -0.000002
vn 0.895905 -0.244222 0.371092
vn 0.895905 -0.244222 0.371092
vn 0.895905 -0.244222 0.371092
vn 0.895905 -0.244222 0.371092
vn 0.632659 -0.774431 0.000000
vn 0.632659 -0.774431 0.000000
vn 0.632659 -0.774431 0.000000
vn 0.632659 -0.774431 0.000000
vn 0.142554 0.928026 -0.344159
vn 0.142554 0.928026 -0.344159
vn 0.142554 0.928026 -0.344159
vn 0.417444 0.807144 -0.417444
vn 0.417444 0.807144 -0.417444
vn 0.417444 0.807144 -0.417444
vn 0.417444 0.807144 -0.417444
vn 0.895902 -0.244226 -0.371096
vn 0.895902 -0.244226 -0.371096
vn 0.895902 -0.244226 -0.371096
vn 0.895902 -0.244226 -0.371096
vn 0.447357 -0.774431 -0.447357
vn 0.447357 -0.774431 -0.447357
vn 0.447357 -0.774431 -0.447357
vn 0.447357 -0.774431 -0.447357
vn -0.142555 0.928027 -0.344156
vn -0.142555 0.928027 -0.344156
vn -0.142555 0.928027 -0.344156
vn 0.000000 0.807144 -0.590355
vn 0.000000 0.807144 -0.590355
vn 0.000000 0.807144 -0.590355
vn 0.000000 0.807144 -0.590355
vn 0.371094 -0.244222 -0.895905
vn 0.371094 -0.244222 -0.895905
vn 0.371094 -0.244222 -0.895905
vn 0.371094 -0.244222 -0.895905
vn 0.000000 -0.774431 -0.632659
vn 0.000000 -0.774431 -0.632659
vn 0.000000 -0.774431 -0.632659
vn 0.000000 -0.774431 -0.632659
vn -0.344157 0.928027 -0.142555
vn -0.344157 0.928027 -0.142555
vn -0.344157 0.928027 -0.142555
vn -0.417444 0.807144 -0.417443
vn -0.417444 0.807144 -0.417443
vn -0.417444 0.807144 -0.417443
vn -0.417444 0.807144 -0.417443
vn -0.371096 -0.244227 -0.895902
vn -0.371096 -0.244227 -0.895902
vn -0.371096 -0.244227 -0.895902
vn -0.371096 -0.244227 -0.895902
vn -0.447357 -0.774431 -0.447357
vn -0.447357 -0.774431 -0.447357
vn -0.447357 -0.774431 -0.447357
vn -0.447357 -0.774431 -0.447357
vn -0.344157 0.928027 0.142556
vn -0.344157 0.928027 0.142556
vn -0.344157 0.928027 0.142556
vn -0.590355 0.807143 0.000000
vn -0.590356 0.807143 0.000000
vn -0.590356 0.807143 0.000000
vn -0.590355 0.807143 0.000000
vn -0.632659 -0.774431 0.000000
vn -0.632659 -0.774431 0.000000
vn -0.632659 -0.774431 0.000000
vn -0.632659 -0.774431 0.000000
vn -0.895905 -0.244223 -0.371092
vn -0.895905 -0.244223 -0.371092
vn -0.895905 -0.244223 -0.371092
vn -0.895905 -0.244223 -0.371092
vn -0.142555 0.928026 0.344159
vn -0.142555 0.928026 0.344159
vn -0.142555 0.928026 0.344159
vn 0.000002 0.807143 0.590355
vn 0.000002 0.807143 0.590355
vn 0.000002 0.807144 0.590355
vn 0.000002 0.807143 0.590355
vn -0.371093 -0.244223 0.895905
vn -0.371093 -0.244223 0.895905
vn -0.371093 -0.244223 0.895905
vn -0.371093 -0.244223 0.895905
vn 0.000000 -0.774431 0.632659
vn 0.000000 -0.774431 0.632659
vn 0.000000 -0.774431 0.632659
vn 0.000000 -0.774431 0.632659
vn -0.417444 0.807144 0.417444
vn -0.417444 0.807144 0.417444
vn -0.417444 0.807144 0.417444
vn -0.417444 0.807144 0.417444
vn -0.895905 -0.244221 0.371093
vn -0.895905 -0.244221 0.371093
vn -0.895905 -0.244221 0.371093
vn -0.895905 -0.244221 0.371093
vn -0.447357 -0.774431 0.447357
vn -0.447357 -0.774431 0.447357
vn -0.447357 -0.774431 0.447357
vn -0.447357 -0.774431 0.447357
vn -0.543856 0.756419 0.363389
vn -0.543856 0.756419 0.363389
vn -0.543856 0.756419 0.363389
vn -0.543856 0.756419 0.363389
vn -0.641520 0.756418 0.127610
vn -0.641520 0.756418 0.127610
vn -0.641520 0.756418 0.127610
vn -0.641520 0.756418 0.127610
vn -0.627707 -0.768371 0.124860
vn -0.627707 -0.768371 0.124860
vn -0.627707 -0.768371 0.124860
vn -0.627708 -0.768370 0.124860
vn -0.532145 -0.768371 0.355567
vn -0.532145 -0.768371 0.355567
vn -0.532145 -0.768371 0.355567
vn -0.532145 -0.768371 0.355567
vn -0.641519 0.756419 -0.127607
vn -0.641519 0.756419 -0.127607
vn -0.641519 0.756419 -0.127607
vn -0.641519 0.756419 -0.127607
vn -0.543854 0.756419 -0.363391
vn -0.543854 0.756419 -0.363391
vn -0.543854 0.756419 -0.363391
vn -0.543854 0.756419 -0.363391
vn -0.532143 -0.768371 -0.355569
vn -0.532144 -0.768371 -0.355569
vn -0.532144 -0.768371 -0.355569
vn -0.532144 -0.768371 -0.355569
vn -0.627707 -0.768371 -0.124858
vn -0.627707 -0.768371 -0.124858
vn -0.627707 -0.768371 -0.124858
vn -0.627707 -0.768371 -0.124858
vn -0.363391 0.756418 -0.543856
vn -0.363391 0.756418 -0.543856
vn -0.363391 0.756418 -0.543856
vn -0.363391 0.756418 -0.543856
vn -0.127609 0.756418 -0.641520
vn -0.127609 0.756418 -0.641520
vn -0.127609 0.756418 -0.641520
vn -0.127609 0.756418 -0.641520
vn -0.124860 -0.768370 -0.627708
vn -0.124860 -0.768370 -0.627708
vn -0.124860 -0.768370 -0.627708
vn -0.124860 -0.768370 -0.627708
vn -0.355567 -0.768371 -0.532145
vn -0.355567 -0.768371 -0.532145
vn -0.355567 -0.768371 -0.532145
vn -0.355567 -0.768371 -0.532145
vn 0.127607 0.756419 -0.641519
vn 0.127607 0.756419 -0.641519
vn 0.127607 0.756419 -0.641519
vn 0.127607 0.756419 -0.641519
vn 0.363390 0.756419 -0.543854
vn 0.363390 0.756419 -0.543854
vn 0.363390 0.756419 -0.543854
vn 0.363390 0.756419 -0.543854
vn 0.355568 -0.768372 -0.532143
vn 0.355568 -0.768372 -0.532143
vn 0.355568 -0.768372 -0.532143
vn 0.355568 -0.768372 -0.532143
vn 0.124857 -0.768371 -0.627707
vn 0.124857 -0.768371 -0.627707
vn 0.124857 -0.768371 -0.627707
vn 0.124857 -0.768371 -0.627707
vn 0.543855 0.756419 -0.363390
vn 0.543855 0.756419 -0.363390
vn 0.543855 0.756419 -0.363390
vn 0.543855 0.756419 -0.363390
vn 0.641519 0.756419 -0.127608
vn 0.641518 0.756419 -0.127608
vn 0.641519 0.756419 -0.127608
vn 0.641519 0.756419 -0.127608
vn 0.627707 -0.768371 -0.124860
vn 0.627707 -0.768371 -0.124860
vn 0.627707 -0.768371 -0.124860
vn 0.627707 -0.768371 -0.124860
vn 0.532145 -0.768371 -0.355567
vn 0.532145 -0.768371 -0.355567
vn 0.532145 -0.768371 -0.355567
vn 0.532145 -0.768371 -0.355567
vn 0.641519 0.756419 0.127607
vn 0.641519 0.756419 0.127607
vn 0.641519 0.756419 0.127607
vn 0.641519 0.756419 0.127607
vn 0.543853 0.756420 0.363390
vn 0.543853 0.756420 0.363390
vn 0.543853 0.756420 0.363390
vn 0.543853 0.756420 0.363390
vn 0.532143 -0.768371 0.355569
vn 0.532143 -0.768371 0.355569
vn 0.532143 -0.768371 0.355569
vn 0.532143 -0.768371 0.355569
vn 0.627707 -0.768371 0.124857
vn 0.627707 -0.768371 0.124857
vn 0.627707 -0.768371 0.124857
vn 0.627707 -0.768371 0.124857
vn 0.363390 0.756419 0.543855
vn 0.363390 0.756419 0.543855
vn 0.363390 0.756419 0.543855
vn 0.363390 0.756419 0.543855
vn 0.127609 0.756419 0.641519
vn 0.127609 0.756419 0.641519
vn 0.127609 0.756419 0.641519
vn 0.127609 0.756419 0.641519
vn 0.124859 -0.768370 0.627708
vn 0.124859 -0.768370 0.627708
vn 0.124859 -0.768370 0.627708
vn 0.124859 -0.768370 0.627708
vn 0.355568 -0.768371 0.532144
vn 0.355568 -0.768371 0.532144
vn 0.355568 -0.768371 0.532144
vn 0.355568 -0.768371 0.532144
vn -0.127610 0.756418 0.641520
vn -0.127610 0.756418 0.641520
vn -0.127610 0.756418 0.641520
vn -0.127610 0.756418 0.641520
vn -0.363389 0.756418 0.543856
vn -0.363389 0.756418 0.543856
vn -0.363389 0.756418 0.543856
vn -0.363389 0.756418 0.543856
vn -0.355567 -0.768371 0.532145
vn -0.355567 -0.768371 0.532145
vn -0.355567 -0.768371 0.532145
vn -0.355567 -0.768371 0.532145
vn -0.124860 -0.768370 0.627708
vn -0.124860 -0.768370 0.627708
vn -0.124860 -0.768370 0.627708
vn -0.124860 -0.768370 0.627708
vn 0.000000 1.000000 0.000000
vn 0.000000 1.000000 0.000000
vn 0.000000 1.000000 0.000000
vn 0.000000 1.000000 0.000000
vn 0.000000 1.000000 0.000000
vn 0.000000 1.000000 0.000000
s 1
g diamonds:Mesh
usemtl diamonds:initialShadingGroup
f 66/92/1 22/2/2 14/3/3
s off
f 22/2/4 25/1/5 13/9/6
f 22/2/7 23/10/8 14/3/9
f 23/10/10 22/2/11 13/9/12 5/11/13
f 61/12/14 42/13/15 45/14/16 43/15/17
f 30/16/18 5/17/19 31/18/20 9/19/21
f 21/20/22 20/4/23 14/3/24
f 23/10/25 4/21/26 21/20/27 14/3/28
f 47/22/29 46/23/30 44/24/31 49/25/32
f 29/26/33 4/27/34 30/16/35 9/19/36
f 18/5/37 20/4/38 11/28/39
f 11/28/40 20/4/41 21/20/42 3/29/43
f 51/30/44 50/31/45 48/32/46 53/33/47
f 28/34/48 3/35/49 29/26/50 9/19/51
f 18/5/52 19/36/53 12/6/54
f 19/36/55 18/5/56 11/28/57 2/37/58
f 55/38/59 54/39/60 52/40/61 57/41/62
f 27/42/63 2/43/64 28/34/65 9/19/66
f 15/44/67 16/7/68 12/6/69
f 19/36/70 1/45/71 15/44/72 12/6/73
f 59/46/74 58/47/75 56/48/76 60/49/77
f 26/50/78 1/51/79 27/42/80 9/19/81
f 17/8/82 16/7/83 10/52/84
f 10/52/85 16/7/86 15/44/87 8/53/88
f 33/54/89 8/55/90 26/56/91 9/19/92
f 40/57/93 39/58/94 38/59/95 41/60/96
f 24/61/97 25/1/98 17/8/99
f 13/9/100 25/1/101 24/61/102 6/62/103
f 65/63/104 64/64/105 63/65/106 62/66/107
f 31/18/108 6/67/109 32/68/110 9/19/111
f 10/52/112 7/69/113 24/61/114 17/8/115
f 36/70/116 35/71/117 34/72/118 37/73/119
f 32/68/120 7/74/121 33/54/122 9/19/123
f 10/52/124 36/70/125 37/73/126 7/69/127
f 35/75/128 36/70/129 10/52/130 8/53/131
f 8/55/132 33/54/133 34/72/134 35/71/135
f 33/54/136 7/74/137 37/76/138 34/72/139
f 15/44/140 40/57/141 41/60/142 8/53/143
f 39/77/144 40/57/145 15/44/146 1/45/147
f 1/51/148 26/50/149 38/78/150 39/58/151
f 26/56/152 8/55/153 41/79/154 38/59/155
f 19/36/156 59/46/157 60/49/158 1/45/159
f 58/80/160 59/46/161 19/36/162 2/37/163
f 2/43/164 27/42/165 56/48/166 58/47/167
f 27/42/168 1/51/169 60/81/170 56/48/171
f 11/28/172 55/38/173 57/41/174 2/37/175
f 54/82/176 55/38/177 11/28/178 3/29/179
f 3/35/180 28/34/181 52/40/182 54/39/183
f 28/34/184 2/43/185 57/83/186 52/40/187
f 21/20/188 51/30/189 53/33/190 3/29/191
f 50/84/192 51/30/193 21/20/194 4/21/195
f 4/27/196 29/26/197 48/32/198 50/31/199
f 29/26/200 3/35/201 53/85/202 48/32/203
f 23/10/204 47/22/205 49/25/206 4/21/207
f 46/86/208 47/22/209 23/10/210 5/11/211
f 5/17/212 30/16/213 44/24/214 46/23/215
f 30/16/216 4/27/217 49/87/218 44/24/219
f 13/9/220 43/15/221 45/14/222 5/11/223
f 61/88/224 43/15/225 13/9/226 6/62/227
f 6/67/228 31/18/229 42/13/230 61/12/231
f 31/18/232 5/17/233 45/89/234 42/13/235
f 24/61/236 65/63/237 62/66/238 6/62/239
f 64/90/240 65/63/241 24/61/242 7/69/243
f 7/74/244 32/68/245 63/65/246 64/64/247
f 32/68/248 6/67/249 62/91/250 63/65/251
s 1
f 18/5/252 66/92/1 20/4/253
f 17/8/254 66/92/1 16/7/255
f 25/1/256 66/92/1 17/8/254
f 25/1/256 22/2/2 66/92/1
f 20/4/253 66/92/1 14/3/3
f 12/6/257 66/92/1 18/5/252
f 16/7/255 66/92/1 12/6/257
