# This file uses centimeters as units for non-parametric coordinates.

mtllib emerald3.mtl
g default
v -0.842809 0.677646 0.263293
v -0.560002 0.677646 0.444138
v -0.960343 0.833095 0.353262
v -0.638098 0.833095 0.595903
v 0.842809 0.677646 0.263293
v 0.560002 0.677646 0.444138
v 0.960343 0.833095 0.353262
v 0.638098 0.833095 0.595903
v -0.960343 0.833095 -0.353262
v -0.638098 0.833095 -0.595903
v -0.842809 0.677646 -0.263293
v -0.560002 0.677646 -0.444138
v 0.638098 0.833095 -0.595903
v 0.960343 0.833095 -0.353262
v 0.842809 0.677646 -0.263293
v 0.560002 0.677646 -0.444138
v -0.711070 1.024312 0.785908
v -1.070167 1.024312 0.465900
v 0.711070 1.024312 0.785908
v 1.070167 1.024312 0.465900
v 1.070167 1.024312 -0.465900
v 0.711070 1.024312 -0.785908
v -0.711070 1.024312 -0.785908
v -1.070167 1.024312 -0.465900
v -0.809421 1.330258 0.936194
v -1.218186 1.330258 0.554992
v 0.809421 1.330258 0.936194
v 1.218186 1.330258 0.554992
v 1.218186 1.330258 -0.554992
v 0.809421 1.330258 -0.936194
v -0.809421 1.330258 -0.936194
v -1.218186 1.330258 -0.554992
v -0.809421 1.384896 0.936194
v -1.218186 1.384896 0.554992
v 0.809421 1.384896 0.936194
v 1.218186 1.384896 0.554992
v 1.218186 1.384896 -0.554992
v 0.809421 1.384896 -0.936194
v -0.809421 1.384896 -0.936194
v -1.218186 1.384896 -0.554992
v -0.761917 1.505079 0.839177
v -1.146692 1.505079 0.497479
v 0.761917 1.505079 0.839177
v 1.146692 1.505079 0.497479
v 1.146692 1.505079 -0.497479
v 0.761917 1.505079 -0.839177
v -0.761917 1.505079 -0.839177
v -1.146692 1.505079 -0.497479
v -0.652943 1.648492 0.689981
v -0.982685 1.648492 0.409033
v 0.652943 1.648492 0.689981
v 0.982685 1.648492 0.409033
v 0.982685 1.648492 -0.409033
v 0.652943 1.648492 -0.689981
v -0.652943 1.648492 -0.689981
v -0.982685 1.648492 -0.409033
v -0.564347 1.724978 0.537402
v -0.849348 1.724978 0.318581
v 0.564347 1.724978 0.537402
v 0.849348 1.724978 0.318582
v 0.849348 1.724978 -0.318582
v 0.564347 1.724978 -0.537402
v -0.564347 1.724978 -0.537402
v -0.849348 1.724978 -0.318581
v -0.381892 0.639286 -0.018160
v -0.528122 0.639286 -0.010765
v 0.381892 0.639286 -0.018160
v 0.528122 0.639286 -0.010765
v 0.528122 0.639286 0.010765
v 0.381892 0.639286 0.018160
v -0.381892 0.639286 0.018160
v -0.528122 0.639286 0.010765
vt 0.390798 0.250000
vt 0.390798 0.000000
vt 0.609202 0.000000
vt 0.609202 0.250000
vt 0.390798 0.750000
vt 0.390798 0.500000
vt 0.609202 0.500000
vt 0.609202 0.750000
vt 0.664496 0.250000
vt 0.664496 0.000000
vt 0.835504 0.000000
vt 0.835504 0.250000
vt 0.164496 0.250000
vt 0.164496 0.000000
vt 0.335504 0.000000
vt 0.335504 0.250000
vt 0.375000 0.289496
vt 0.390798 0.250000
vt 0.609202 0.250000
vt 0.625000 0.289496
vt 0.625000 0.460504
vt 0.609202 0.500000
vt 0.390798 0.500000
vt 0.375000 0.460504
vt 0.375000 0.789496
vt 0.390798 0.750000
vt 0.609202 0.750000
vt 0.625000 0.789496
vt 0.625000 0.960504
vt 0.609202 1.000000
vt 0.390798 1.000000
vt 0.375000 0.960504
vt 0.375000 0.460504
vt 0.375000 0.789496
vt 0.625000 0.460504
vt 0.625000 0.789496
vt 0.375000 0.289496
vt 0.390798 0.250000
vt 0.375000 0.289496
vt 0.609202 0.250000
vt 0.625000 0.289496
vt 0.625000 0.289496
vt 0.625000 0.460504
vt 0.609202 0.500000
vt 0.390798 0.500000
vt 0.375000 0.460504
vt 0.390798 0.250000
vt 0.375000 0.289496
vt 0.609202 0.250000
vt 0.625000 0.289496
vt 0.625000 0.460504
vt 0.609202 0.500000
vt 0.390798 0.500000
vt 0.375000 0.460504
vt 0.390798 0.250000
vt 0.375000 0.289496
vt 0.609202 0.250000
vt 0.625000 0.289496
vt 0.625000 0.460504
vt 0.609202 0.500000
vt 0.390798 0.500000
vt 0.375000 0.460504
vt 0.390798 0.250000
vt 0.375000 0.289496
vt 0.609202 0.250000
vt 0.625000 0.289496
vt 0.625000 0.460504
vt 0.609202 0.500000
vt 0.390798 0.500000
vt 0.375000 0.460504
vt 0.390798 0.250000
vt 0.375000 0.289496
vt 0.609202 0.250000
vt 0.625000 0.289496
vt 0.625000 0.460504
vt 0.609202 0.500000
vt 0.390798 0.500000
vt 0.375000 0.460504
vt 0.625000 0.960504
vt 0.609202 1.000000
vt 0.390798 1.000000
vt 0.375000 0.960504
vn 0.000000 -0.698578 0.715534
vn 0.000000 -0.698578 0.715534
vn 0.000000 -0.698578 0.715534
vn 0.000000 -0.698578 0.715534
vn 0.000000 -0.698578 -0.715534
vn 0.000000 -0.698578 -0.715534
vn 0.000000 -0.698578 -0.715534
vn 0.000000 -0.698578 -0.715534
vn 0.797658 -0.603110 0.000000
vn 0.797658 -0.603110 0.000000
vn 0.797658 -0.603110 0.000000
vn 0.797658 -0.603110 0.000000
vn -0.797658 -0.603110 0.000000
vn -0.797658 -0.603110 0.000000
vn -0.797658 -0.603110 0.000000
vn -0.797658 -0.603110 0.000000
vn 0.000000 1.000000 0.000000
vn 0.000000 1.000000 0.000000
vn 0.000000 1.000000 0.000000
vn 0.000000 1.000000 0.000000
vn 0.000000 1.000000 0.000000
vn 0.000000 1.000000 0.000000
vn 0.000000 1.000000 0.000000
vn 0.000000 1.000000 0.000000
vn 0.000000 -1.000000 0.000000
vn 0.000000 -1.000000 0.000000
vn 0.000000 -1.000000 0.000000
vn 0.000000 -1.000000 0.000000
vn 0.000000 -1.000000 0.000000
vn 0.000000 -1.000000 0.000000
vn 0.000000 -1.000000 0.000000
vn 0.000000 -1.000000 0.000000
vn -0.405908 -0.706337 0.579937
vn -0.405908 -0.706337 0.579937
vn -0.405908 -0.706337 0.579937
vn -0.405908 -0.706337 0.579937
vn 0.405908 -0.706337 0.579937
vn 0.405908 -0.706337 0.579937
vn 0.405908 -0.706337 0.579937
vn 0.405908 -0.706337 0.579937
vn -0.405908 -0.706337 -0.579937
vn -0.405908 -0.706337 -0.579937
vn -0.405908 -0.706337 -0.579937
vn -0.405908 -0.706337 -0.579937
vn 0.405908 -0.706337 -0.579937
vn 0.405908 -0.706337 -0.579937
vn 0.405908 -0.706337 -0.579937
vn 0.405908 -0.706337 -0.579937
vn -0.769348 -0.599313 0.221195
vn -0.469876 -0.674876 0.568998
vn -0.751201 -0.610348 0.251341
vn -0.469876 -0.674876 0.568998
vn 0.000000 -0.704856 0.709350
vn 0.000000 -0.704856 0.709350
vn 0.000000 -0.704856 0.709350
vn 0.000000 -0.704856 0.709350
vn 0.769348 -0.599313 0.221195
vn 0.751201 -0.610348 0.251341
vn 0.469876 -0.674876 0.568998
vn 0.469876 -0.674876 0.568998
vn 0.769348 -0.599313 0.221195
vn 0.769348 -0.599313 -0.221195
vn 0.751201 -0.610348 0.251341
vn 0.751201 -0.610348 -0.251341
vn 0.769348 -0.599313 -0.221195
vn 0.469876 -0.674876 -0.568998
vn 0.751201 -0.610348 -0.251341
vn 0.469876 -0.674876 -0.568998
vn 0.000000 -0.704856 -0.709350
vn 0.000000 -0.704856 -0.709350
vn 0.000000 -0.704856 -0.709350
vn 0.000000 -0.704856 -0.709350
vn -0.769348 -0.599313 -0.221195
vn -0.751201 -0.610348 -0.251341
vn -0.469876 -0.674876 -0.568998
vn -0.469876 -0.674876 -0.568998
vn -0.769348 -0.599313 -0.221195
vn -0.769348 -0.599313 0.221195
vn -0.751201 -0.610348 -0.251341
vn -0.751201 -0.610348 0.251341
vn -0.588260 -0.488861 0.644177
vn -0.588260 -0.488861 0.644177
vn -0.845861 -0.481805 0.228874
vn -0.840526 -0.483902 0.243629
vn 0.000000 -0.440894 0.897559
vn 0.000000 -0.440894 0.897559
vn 0.000000 -0.380523 0.924772
vn 0.000000 -0.380523 0.924772
vn 0.588260 -0.488861 0.644177
vn 0.845861 -0.481805 0.228874
vn 0.588260 -0.488861 0.644177
vn 0.840526 -0.483902 0.243629
vn 0.845861 -0.481805 0.228874
vn 0.845861 -0.481805 -0.228874
vn 0.840526 -0.483902 0.243629
vn 0.840526 -0.483902 -0.243629
vn 0.588260 -0.488862 -0.644177
vn 0.588260 -0.488862 -0.644177
vn 0.845861 -0.481805 -0.228874
vn 0.840526 -0.483902 -0.243629
vn 0.000000 -0.440894 -0.897559
vn 0.000000 -0.440894 -0.897559
vn 0.000000 -0.380523 -0.924772
vn 0.000000 -0.380523 -0.924772
vn -0.588260 -0.488861 -0.644177
vn -0.845861 -0.481805 -0.228874
vn -0.588260 -0.488861 -0.644177
vn -0.840526 -0.483902 -0.243629
vn -0.845861 -0.481805 -0.228874
vn -0.845861 -0.481805 0.228874
vn -0.840526 -0.483902 -0.243629
vn -0.840526 -0.483902 0.243629
vn -0.964422 0.000000 0.264368
vn -0.682019 0.000000 0.731334
vn -0.863129 0.438419 0.250592
vn -0.595959 0.472819 0.649057
vn 0.000000 -0.380523 0.924772
vn 0.000000 -0.380523 0.924772
vn 0.000000 0.478994 0.877818
vn 0.000000 0.478994 0.877818
vn 0.682019 0.000000 0.731334
vn 0.964422 0.000000 0.264368
vn 0.595959 0.472819 0.649057
vn 0.863130 0.438419 0.250592
vn 0.964422 0.000000 0.264368
vn 0.964422 0.000000 -0.264368
vn 0.863130 0.438419 0.250592
vn 0.863129 0.438419 -0.250592
vn 0.964422 0.000000 -0.264368
vn 0.682019 0.000000 -0.731334
vn 0.863129 0.438419 -0.250592
vn 0.595959 0.472819 -0.649057
vn 0.000000 -0.380523 -0.924772
vn 0.000000 -0.380523 -0.924772
vn 0.000000 0.478994 -0.877818
vn 0.000000 0.478994 -0.877818
vn -0.682019 0.000000 -0.731334
vn -0.964422 0.000000 -0.264368
vn -0.595959 0.472819 -0.649057
vn -0.863129 0.438419 -0.250592
vn -0.964422 0.000000 -0.264368
vn -0.964422 0.000000 0.264368
vn -0.863129 0.438419 -0.250592
vn -0.863129 0.438419 0.250592
vn -0.595959 0.472819 0.649057
vn -0.523648 0.628790 0.574818
vn -0.863129 0.438419 0.250592
vn -0.786042 0.582238 0.207694
vn 0.000000 0.478994 0.877818
vn 0.000000 0.478994 0.877818
vn 0.000000 0.678660 0.734453
vn 0.000000 0.678660 0.734453
vn 0.595959 0.472819 0.649057
vn 0.863130 0.438419 0.250592
vn 0.523648 0.628789 0.574819
vn 0.786043 0.582237 0.207694
vn 0.863130 0.438419 0.250592
vn 0.863129 0.438419 -0.250592
vn 0.786043 0.582237 0.207694
vn 0.786043 0.582237 -0.207694
vn 0.595959 0.472819 -0.649057
vn 0.523648 0.628790 -0.574818
vn 0.863129 0.438419 -0.250592
vn 0.786043 0.582237 -0.207694
vn 0.000000 0.478994 -0.877818
vn 0.000000 0.478994 -0.877818
vn 0.000000 0.678660 -0.734453
vn 0.000000 0.678660 -0.734453
vn -0.595959 0.472819 -0.649057
vn -0.863129 0.438419 -0.250592
vn -0.523648 0.628790 -0.574818
vn -0.786042 0.582238 -0.207694
vn -0.863129 0.438419 -0.250592
vn -0.863129 0.438419 0.250592
vn -0.786042 0.582238 -0.207694
vn -0.786042 0.582238 0.207694
vn -0.584630 0.790188 0.183878
vn -0.410429 0.780844 0.470988
vn -0.594334 0.787515 0.163056
vn -0.410429 0.780844 0.470988
vn 0.000000 0.678660 0.734453
vn 0.000000 0.678660 0.734453
vn 0.000000 0.720941 0.692996
vn 0.000000 0.720941 0.692996
vn 0.584630 0.790187 0.183878
vn 0.594334 0.787515 0.163056
vn 0.410429 0.780844 0.470989
vn 0.410429 0.780844 0.470989
vn 0.584630 0.790187 0.183878
vn 0.584630 0.790188 -0.183878
vn 0.594334 0.787515 0.163056
vn 0.594334 0.787515 -0.163056
vn 0.584630 0.790188 -0.183878
vn 0.410429 0.780844 -0.470989
vn 0.594334 0.787515 -0.163056
vn 0.410429 0.780844 -0.470989
vn 0.000000 0.678660 -0.734453
vn 0.000000 0.678660 -0.734453
vn 0.000000 0.720941 -0.692996
vn 0.000000 0.720941 -0.692996
vn -0.584630 0.790188 -0.183878
vn -0.594334 0.787515 -0.163056
vn -0.410429 0.780844 -0.470989
vn -0.410429 0.780844 -0.470989
vn -0.584630 0.790188 -0.183878
vn -0.584630 0.790188 0.183878
vn -0.594334 0.787515 -0.163056
vn -0.594334 0.787515 0.163056
vn -0.404529 0.902758 0.146234
vn -0.266245 0.906565 0.327496
vn -0.424292 0.897916 0.117148
vn -0.266245 0.906565 0.327496
vn 0.000000 0.893964 0.448138
vn 0.000000 0.893964 0.448138
vn 0.000000 0.893964 0.448138
vn 0.000000 0.893964 0.448138
vn 0.404529 0.902758 0.146235
vn 0.424292 0.897916 0.117148
vn 0.266245 0.906565 0.327496
vn 0.266245 0.906565 0.327496
vn 0.404529 0.902758 0.146235
vn 0.404529 0.902758 -0.146234
vn 0.424292 0.897916 0.117148
vn 0.424292 0.897916 -0.117148
vn 0.404529 0.902758 -0.146234
vn 0.266245 0.906565 -0.327496
vn 0.424292 0.897916 -0.117148
vn 0.266245 0.906565 -0.327496
vn 0.000000 0.893964 -0.448138
vn 0.000000 0.893964 -0.448138
vn 0.000000 0.893964 -0.448138
vn 0.000000 0.893964 -0.448138
vn -0.404529 0.902758 -0.146235
vn -0.424292 0.897916 -0.117148
vn -0.266245 0.906565 -0.327496
vn -0.266245 0.906565 -0.327496
vn -0.404529 0.902758 -0.146235
vn -0.404529 0.902758 0.146234
vn -0.424292 0.897916 -0.117148
vn -0.424292 0.897916 0.117148
vn -0.037458 -0.995645 -0.085374
vn -0.037458 -0.995645 -0.085374
vn -0.037458 -0.995645 -0.085374
vn -0.037458 -0.995645 -0.085374
vn 0.000000 -0.995970 -0.089689
vn 0.000000 -0.995970 -0.089689
vn 0.000000 -0.995970 -0.089689
vn 0.000000 -0.995970 -0.089689
vn 0.037458 -0.995645 -0.085374
vn 0.037458 -0.995645 -0.085374
vn 0.037458 -0.995645 -0.085374
vn 0.037458 -0.995645 -0.085374
vn 0.121004 -0.992652 0.000000
vn 0.121004 -0.992652 0.000000
vn 0.121004 -0.992652 0.000000
vn 0.121004 -0.992652 0.000000
vn 0.037458 -0.995645 0.085374
vn 0.037458 -0.995645 0.085374
vn 0.037458 -0.995645 0.085374
vn 0.037458 -0.995645 0.085374
vn 0.000000 -0.995970 0.089689
vn 0.000000 -0.995970 0.089689
vn 0.000000 -0.995970 0.089689
vn 0.000000 -0.995970 0.089689
vn -0.037458 -0.995645 0.085374
vn -0.037458 -0.995645 0.085374
vn -0.037458 -0.995645 0.085374
vn -0.037458 -0.995645 0.085374
vn -0.121004 -0.992652 0.000000
vn -0.121004 -0.992652 0.000000
vn -0.121004 -0.992652 0.000000
vn -0.121004 -0.992652 0.000000
s 1
g emerald:pCube1
usemtl initialShadingGroup
f 4/1/1 2/2/2 8/4/3
f 8/4/3 2/2/2 6/3/4
s 2
f 12/5/5 10/6/6 16/8/7
f 16/8/7 10/6/6 13/7/8
s 3
f 7/9/9 5/10/10 14/12/11
f 14/12/11 5/10/10 15/11/12
s 4
f 9/13/13 11/14/14 3/16/15
f 3/16/15 11/14/14 1/15/16
s 5
f 58/17/17 57/18/18 64/24/19
f 57/18/18 59/19/20 64/24/19
f 64/24/19 59/19/20 63/23/21
f 63/23/21 59/19/20 62/22/22
f 59/19/20 60/20/23 62/22/22
f 60/20/23 61/21/24 62/22/22
s 6
f 66/25/25 65/26/26 72/32/27
f 72/32/27 65/26/26 71/31/28
f 65/26/26 67/27/29 71/31/28
f 68/28/30 69/29/31 67/27/29
f 69/29/31 70/30/32 67/27/29
f 67/27/29 70/30/32 71/31/28
s 8
f 2/2/33 4/1/34 1/15/35
f 1/15/35 4/1/34 3/16/36
s 9
f 6/3/37 5/10/38 8/4/39
f 8/4/39 5/10/38 7/9/40
s 10
f 9/33/41 10/6/42 11/34/43
f 11/34/43 10/6/42 12/5/44
s 11
f 14/35/45 15/36/46 13/7/47
f 13/7/47 15/36/46 16/8/48
s 12
f 3/37/49 4/1/50 18/39/51
f 18/39/51 4/1/50 17/38/52
s 13
f 4/1/53 8/4/54 17/38/55
f 17/38/55 8/4/54 19/40/56
s 14
f 7/41/57 20/42/58 8/4/59
f 8/4/59 20/42/58 19/40/60
s 15
f 7/41/61 14/35/62 20/42/63
f 20/42/63 14/35/62 21/43/64
s 16
f 14/35/65 13/7/66 21/43/67
f 21/43/67 13/7/66 22/44/68
s 17
f 13/7/69 10/6/70 22/44/71
f 22/44/71 10/6/70 23/45/72
s 18
f 9/33/73 24/46/74 10/6/75
f 10/6/75 24/46/74 23/45/76
s 19
f 9/33/77 3/37/78 24/46/79
f 24/46/79 3/37/78 18/39/80
s 20
f 17/38/81 25/47/82 18/39/83
f 18/39/83 25/47/82 26/48/84
s 21
f 17/38/85 19/40/86 25/47/87
f 25/47/87 19/40/86 27/49/88
s 22
f 19/40/89 20/42/90 27/49/91
f 27/49/91 20/42/90 28/50/92
s 23
f 20/42/93 21/43/94 28/50/95
f 28/50/95 21/43/94 29/51/96
s 24
f 22/44/97 30/52/98 21/43/99
f 21/43/99 30/52/98 29/51/100
s 25
f 22/44/101 23/45/102 30/52/103
f 30/52/103 23/45/102 31/53/104
s 26
f 23/45/105 24/46/106 31/53/107
f 31/53/107 24/46/106 32/54/108
s 27
f 24/46/109 18/39/110 32/54/111
f 32/54/111 18/39/110 26/48/112
s 28
f 26/48/113 25/47/114 34/56/115
f 34/56/115 25/47/114 33/55/116
s 29
f 25/47/117 27/49/118 33/55/119
f 33/55/119 27/49/118 35/57/120
s 30
f 27/49/121 28/50/122 35/57/123
f 35/57/123 28/50/122 36/58/124
s 31
f 28/50/125 29/51/126 36/58/127
f 36/58/127 29/51/126 37/59/128
s 32
f 29/51/129 30/52/130 37/59/131
f 37/59/131 30/52/130 38/60/132
s 33
f 30/52/133 31/53/134 38/60/135
f 38/60/135 31/53/134 39/61/136
s 34
f 31/53/137 32/54/138 39/61/139
f 39/61/139 32/54/138 40/62/140
s 35
f 32/54/141 26/48/142 40/62/143
f 40/62/143 26/48/142 34/56/144
s 36
f 33/55/145 41/63/146 34/56/147
f 34/56/147 41/63/146 42/64/148
s 37
f 33/55/149 35/57/150 41/63/151
f 41/63/151 35/57/150 43/65/152
s 38
f 35/57/153 36/58/154 43/65/155
f 43/65/155 36/58/154 44/66/156
s 39
f 36/58/157 37/59/158 44/66/159
f 44/66/159 37/59/158 45/67/160
s 40
f 38/60/161 46/68/162 37/59/163
f 37/59/163 46/68/162 45/67/164
s 41
f 38/60/165 39/61/166 46/68/167
f 46/68/167 39/61/166 47/69/168
s 42
f 39/61/169 40/62/170 47/69/171
f 47/69/171 40/62/170 48/70/172
s 43
f 40/62/173 34/56/174 48/70/175
f 48/70/175 34/56/174 42/64/176
s 44
f 42/64/177 41/63/178 50/72/179
f 50/72/179 41/63/178 49/71/180
s 45
f 41/63/181 43/65/182 49/71/183
f 49/71/183 43/65/182 51/73/184
s 46
f 44/66/185 52/74/186 43/65/187
f 43/65/187 52/74/186 51/73/188
s 47
f 44/66/189 45/67/190 52/74/191
f 52/74/191 45/67/190 53/75/192
s 48
f 45/67/193 46/68/194 53/75/195
f 53/75/195 46/68/194 54/76/196
s 49
f 46/68/197 47/69/198 54/76/199
f 54/76/199 47/69/198 55/77/200
s 50
f 48/70/201 56/78/202 47/69/203
f 47/69/203 56/78/202 55/77/204
s 51
f 48/70/205 42/64/206 56/78/207
f 56/78/207 42/64/206 50/72/208
s 52
f 50/72/209 49/71/210 58/17/211
f 58/17/211 49/71/210 57/18/212
s 53
f 49/71/213 51/73/214 57/18/215
f 57/18/215 51/73/214 59/19/216
s 54
f 52/74/217 60/20/218 51/73/219
f 51/73/219 60/20/218 59/19/220
s 55
f 52/74/221 53/75/222 60/20/223
f 60/20/223 53/75/222 61/21/224
s 56
f 53/75/225 54/76/226 61/21/227
f 61/21/227 54/76/226 62/22/228
s 57
f 54/76/229 55/77/230 62/22/231
f 62/22/231 55/77/230 63/23/232
s 58
f 56/78/233 64/24/234 55/77/235
f 55/77/235 64/24/234 63/23/236
s 59
f 56/78/237 50/72/238 64/24/239
f 64/24/239 50/72/238 58/17/240
s 60
f 11/34/241 12/5/242 66/25/243
f 66/25/243 12/5/242 65/26/244
s 61
f 12/5/245 16/8/246 65/26/247
f 65/26/247 16/8/246 67/27/248
s 62
f 15/36/249 68/28/250 16/8/251
f 16/8/251 68/28/250 67/27/252
s 63
f 15/36/253 5/79/254 68/28/255
f 5/79/254 69/29/256 68/28/255
s 64
f 5/79/257 6/80/258 69/29/259
f 69/29/259 6/80/258 70/30/260
s 65
f 6/80/261 2/81/262 70/30/263
f 70/30/263 2/81/262 71/31/264
s 66
f 1/82/265 72/32/266 2/81/267
f 2/81/267 72/32/266 71/31/268
s 67
f 1/82/269 11/34/270 72/32/271
f 11/34/270 66/25/272 72/32/271
