# This file uses centimeters as units for non-parametric coordinates.

mtllib Emeraldobj1.mtl
g default
v -75.905089 -1.729569 23.712707
v -50.434950 -1.729569 40.000000
v -86.490484 12.270431 31.815484
v -57.468384 12.270431 53.668246
v 75.905089 -1.729569 23.712707
v 50.434950 -1.729569 40.000000
v 86.490484 12.270431 31.815484
v 57.468384 12.270431 53.668246
v -86.490484 12.270431 -31.815484
v -57.468384 12.270431 -53.668246
v -75.905089 -1.729569 -23.712707
v -50.434950 -1.729569 -40.000000
v 57.468384 12.270431 -53.668246
v 86.490484 12.270431 -31.815484
v 75.905089 -1.729569 -23.712707
v 50.434950 -1.729569 -40.000000
v -64.040395 29.491796 70.780501
v -96.381419 29.491796 41.959934
v 64.040395 29.491796 70.780501
v 96.381419 29.491796 41.959934
v 96.381419 29.491796 -41.959934
v 64.040395 29.491796 -70.780501
v -64.040395 29.491796 -70.780501
v -96.381419 29.491796 -41.959934
v -72.898070 57.045972 84.315519
v -109.712302 57.045972 49.983721
v 72.898070 57.045972 84.315519
v 109.712302 57.045972 49.983740
v 109.712302 57.045972 -49.983740
v 72.898070 57.045972 -84.315519
v -72.898070 57.045972 -84.315519
v -109.712302 57.045972 -49.983721
v -72.898070 61.966815 84.315519
v -109.712302 61.966815 49.983721
v 72.898070 61.966815 84.315519
v 109.712302 61.966815 49.983740
v 109.712302 61.966815 -49.983740
v 72.898070 61.966815 -84.315519
v -72.898070 61.966815 -84.315519
v -109.712302 61.966815 -49.983721
v -68.619787 72.790741 75.577965
v -103.273441 72.790741 44.803948
v 68.619787 72.790741 75.577965
v 103.273441 72.790741 44.803967
v 103.273441 72.790741 -44.803967
v 68.619787 72.790741 -75.577965
v -68.619787 72.790741 -75.577965
v -103.273441 72.790741 -44.803948
v -58.805373 85.706758 62.141118
v -88.502656 85.706758 36.838350
v 58.805373 85.706758 62.141118
v 88.502656 85.706758 36.838367
v 88.502656 85.706758 -36.838367
v 58.805373 85.706758 -62.141118
v -58.805373 85.706758 -62.141118
v -88.502656 85.706758 -36.838350
v -50.826279 92.595300 48.399544
v -76.494044 92.595300 28.692100
v 50.826279 92.595300 48.399544
v 76.494044 92.595300 28.692114
v 76.494044 92.595300 -28.692114
v 50.826279 92.595300 -48.399544
v -50.826279 92.595300 -48.399544
v -76.494044 92.595300 -28.692100
v -34.393948 -5.184360 -1.635482
v -47.563728 -5.184360 -0.969536
v 34.393948 -5.184360 -1.635482
v 47.563728 -5.184360 -0.969536
v 47.563728 -5.184360 0.969536
v 34.393948 -5.184360 1.635482
v -34.393948 -5.184360 1.635482
v -47.563728 -5.184360 0.969536
vt 0.375000 0.289496
vt 0.625000 0.289496
vt 0.375000 0.460504
vt 0.625000 0.789496
vt 0.625000 0.960504
vt 0.609202 1.000000
vt 0.390798 1.000000
vt 0.375000 0.960504
vt 0.390798 0.250000
vt 0.609202 0.000000
vt 0.164496 0.250000
vt 0.164496 0.000000
vt 0.335504 0.000000
vt 0.390798 0.750000
vt 0.609202 0.500000
vt 0.664496 0.250000
vt 0.835504 0.000000
vt 0.835504 0.250000
vt 0.390798 0.000000
vt 0.335504 0.250000
vt 0.664496 0.000000
vt 0.609202 0.250000
vt 0.390798 0.500000
vt 0.375000 0.789496
vt 0.625000 0.460504
vt 0.609202 0.750000
vt 0.375000 0.289496
vt 0.390798 0.250000
vt 0.609202 0.250000
vt 0.625000 0.289496
vt 0.625000 0.460504
vt 0.609202 0.500000
vt 0.390798 0.500000
vt 0.375000 0.460504
vt 0.375000 0.289496
vt 0.390798 0.250000
vt 0.609202 0.250000
vt 0.625000 0.289496
vt 0.625000 0.460504
vt 0.609202 0.500000
vt 0.390798 0.500000
vt 0.375000 0.460504
vt 0.375000 0.289496
vt 0.390798 0.250000
vt 0.609202 0.250000
vt 0.625000 0.289496
vt 0.625000 0.460504
vt 0.609202 0.500000
vt 0.390798 0.500000
vt 0.375000 0.460504
vt 0.375000 0.289496
vt 0.390798 0.250000
vt 0.609202 0.250000
vt 0.625000 0.289496
vt 0.625000 0.460504
vt 0.609202 0.500000
vt 0.390798 0.500000
vt 0.375000 0.460504
vt 0.375000 0.289496
vt 0.390798 0.250000
vt 0.609202 0.250000
vt 0.625000 0.289496
vt 0.625000 0.460504
vt 0.609202 0.500000
vt 0.390798 0.500000
vt 0.375000 0.460504
vt 0.375000 0.289496
vt 0.390798 0.250000
vt 0.609202 0.250000
vt 0.625000 0.289496
vt 0.625000 0.460504
vt 0.609202 0.500000
vt 0.390798 0.500000
vt 0.375000 0.460504
vt 0.375000 0.789496
vt 0.390798 0.750000
vt 0.609202 0.750000
vt 0.625000 0.789496
vt 0.625000 0.960504
vt 0.609202 1.000000
vt 0.390798 1.000000
vt 0.375000 0.960504
vn 0.000000 -0.698578 0.715534
vn 0.000000 -0.698578 0.715534
vn 0.000000 -0.698578 0.715534
vn 0.000000 -0.698578 0.715534
vn 0.000000 -0.698578 -0.715534
vn 0.000000 -0.698578 -0.715534
vn 0.000000 -0.698578 -0.715534
vn 0.000000 -0.698578 -0.715534
vn 0.797658 -0.603110 0.000000
vn 0.797658 -0.603110 0.000000
vn 0.797658 -0.603110 0.000000
vn 0.797658 -0.603110 0.000000
vn -0.797658 -0.603110 0.000000
vn -0.797658 -0.603110 0.000000
vn -0.797658 -0.603110 0.000000
vn -0.797658 -0.603110 0.000000
vn 0.000000 1.000000 -0.000000
vn 0.000000 1.000000 -0.000000
vn 0.000000 1.000000 -0.000000
vn 0.000000 1.000000 -0.000000
vn 0.000000 1.000000 -0.000000
vn 0.000000 1.000000 -0.000000
vn 0.000000 1.000000 -0.000000
vn 0.000000 1.000000 -0.000000
vn 0.000000 -1.000000 -0.000000
vn 0.000000 -1.000000 -0.000000
vn 0.000000 -1.000000 -0.000000
vn 0.000000 -1.000000 -0.000000
vn 0.000000 -1.000000 -0.000000
vn 0.000000 -1.000000 -0.000000
vn 0.000000 -1.000000 -0.000000
vn 0.000000 -1.000000 -0.000000
vn -0.405908 -0.706337 0.579937
vn -0.405908 -0.706337 0.579937
vn -0.405908 -0.706337 0.579937
vn -0.405908 -0.706337 0.579937
vn 0.405908 -0.706337 0.579937
vn 0.405908 -0.706337 0.579937
vn 0.405908 -0.706337 0.579937
vn 0.405908 -0.706337 0.579937
vn -0.405908 -0.706337 -0.579937
vn -0.405908 -0.706337 -0.579937
vn -0.405908 -0.706337 -0.579937
vn -0.405908 -0.706337 -0.579937
vn 0.405908 -0.706337 -0.579937
vn 0.405908 -0.706337 -0.579937
vn 0.405908 -0.706337 -0.579937
vn 0.405908 -0.706337 -0.579937
vn -0.769348 -0.599313 0.221195
vn -0.469876 -0.674876 0.568998
vn -0.469876 -0.674876 0.568998
vn -0.751201 -0.610348 0.251341
vn 0.000000 -0.704856 0.709350
vn 0.000000 -0.704856 0.709350
vn 0.000000 -0.704856 0.709350
vn 0.000000 -0.704856 0.709350
vn 0.469876 -0.674876 0.568998
vn 0.769348 -0.599313 0.221195
vn 0.751201 -0.610348 0.251341
vn 0.469876 -0.674876 0.568998
vn 0.769348 -0.599313 -0.221195
vn 0.751201 -0.610348 -0.251341
vn 0.469876 -0.674876 -0.568998
vn 0.469876 -0.674876 -0.568998
vn 0.000000 -0.704856 -0.709350
vn 0.000000 -0.704856 -0.709350
vn 0.000000 -0.704856 -0.709350
vn 0.000000 -0.704856 -0.709350
vn -0.469876 -0.674876 -0.568998
vn -0.769348 -0.599313 -0.221195
vn -0.751201 -0.610348 -0.251341
vn -0.469876 -0.674876 -0.568998
vn -0.845861 -0.481805 0.228874
vn -0.588260 -0.488861 0.644177
vn -0.588260 -0.488861 0.644177
vn -0.840526 -0.483902 0.243629
vn 0.000000 -0.440894 0.897559
vn 0.000000 -0.440894 0.897559
vn 0.000000 -0.380523 0.924772
vn 0.000000 -0.380523 0.924772
vn 0.588260 -0.488861 0.644177
vn 0.845861 -0.481805 0.228874
vn 0.840526 -0.483902 0.243629
vn 0.588260 -0.488861 0.644177
vn 0.845861 -0.481805 -0.228874
vn 0.840526 -0.483902 -0.243629
vn 0.588260 -0.488862 -0.644177
vn 0.588260 -0.488862 -0.644177
vn 0.000000 -0.440894 -0.897559
vn 0.000000 -0.440894 -0.897559
vn 0.000000 -0.380523 -0.924772
vn 0.000000 -0.380523 -0.924772
vn -0.588260 -0.488861 -0.644177
vn -0.845861 -0.481805 -0.228874
vn -0.840526 -0.483902 -0.243629
vn -0.588260 -0.488861 -0.644177
vn -0.964422 0.000000 0.264368
vn -0.682019 0.000000 0.731334
vn -0.595959 0.472819 0.649057
vn -0.863129 0.438419 0.250592
vn 0.000000 0.478994 0.877818
vn 0.000000 0.478994 0.877818
vn 0.682019 0.000000 0.731334
vn 0.964422 0.000000 0.264368
vn 0.863130 0.438419 0.250592
vn 0.595959 0.472819 0.649057
vn 0.964422 0.000000 -0.264368
vn 0.863129 0.438419 -0.250592
vn 0.682019 0.000000 -0.731334
vn 0.595959 0.472819 -0.649057
vn 0.000000 0.478994 -0.877818
vn 0.000000 0.478994 -0.877818
vn -0.682019 0.000000 -0.731334
vn -0.964422 0.000000 -0.264368
vn -0.863129 0.438419 -0.250592
vn -0.595959 0.472819 -0.649057
vn -0.523648 0.628790 0.574818
vn -0.786042 0.582238 0.207694
vn 0.000000 0.678660 0.734453
vn 0.000000 0.678660 0.734453
vn 0.786043 0.582237 0.207694
vn 0.523648 0.628789 0.574819
vn 0.786043 0.582237 -0.207694
vn 0.523648 0.628790 -0.574818
vn 0.000000 0.678660 -0.734453
vn 0.000000 0.678660 -0.734453
vn -0.786042 0.582238 -0.207694
vn -0.523648 0.628790 -0.574818
vn -0.584630 0.790188 0.183878
vn -0.410429 0.780844 0.470988
vn -0.410429 0.780844 0.470988
vn -0.594334 0.787515 0.163056
vn 0.000000 0.720941 0.692996
vn 0.000000 0.720941 0.692996
vn 0.410429 0.780844 0.470989
vn 0.584630 0.790187 0.183878
vn 0.594334 0.787515 0.163056
vn 0.410429 0.780844 0.470989
vn 0.584630 0.790188 -0.183878
vn 0.594334 0.787515 -0.163056
vn 0.410429 0.780844 -0.470989
vn 0.410429 0.780844 -0.470989
vn 0.000000 0.720941 -0.692996
vn 0.000000 0.720941 -0.692996
vn -0.410429 0.780844 -0.470989
vn -0.584630 0.790188 -0.183878
vn -0.594334 0.787515 -0.163056
vn -0.410429 0.780844 -0.470989
vn -0.404529 0.902758 0.146234
vn -0.266245 0.906565 0.327496
vn -0.266245 0.906565 0.327496
vn -0.424292 0.897916 0.117148
vn 0.000000 0.893965 0.448138
vn 0.000000 0.893965 0.448138
vn 0.000000 0.893965 0.448138
vn 0.000000 0.893965 0.448138
vn 0.266245 0.906565 0.327496
vn 0.404529 0.902758 0.146235
vn 0.424292 0.897916 0.117148
vn 0.266245 0.906565 0.327496
vn 0.404529 0.902758 -0.146234
vn 0.424292 0.897916 -0.117148
vn 0.266245 0.906565 -0.327496
vn 0.266245 0.906565 -0.327496
vn 0.000000 0.893965 -0.448138
vn 0.000000 0.893965 -0.448138
vn 0.000000 0.893965 -0.448138
vn 0.000000 0.893965 -0.448138
vn -0.266245 0.906565 -0.327496
vn -0.404529 0.902758 -0.146235
vn -0.424292 0.897916 -0.117148
vn -0.266245 0.906565 -0.327496
vn -0.037458 -0.995645 -0.085374
vn -0.037458 -0.995645 -0.085374
vn -0.037458 -0.995645 -0.085374
vn -0.037458 -0.995645 -0.085374
vn 0.000000 -0.995970 -0.089689
vn 0.000000 -0.995970 -0.089689
vn 0.000000 -0.995970 -0.089689
vn 0.000000 -0.995970 -0.089689
vn 0.037458 -0.995645 -0.085374
vn 0.037458 -0.995645 -0.085374
vn 0.037458 -0.995645 -0.085374
vn 0.037458 -0.995645 -0.085374
vn 0.121004 -0.992652 0.000000
vn 0.121004 -0.992652 0.000000
vn 0.121004 -0.992652 0.000000
vn 0.121004 -0.992652 0.000000
vn 0.037458 -0.995645 0.085374
vn 0.037458 -0.995645 0.085374
vn 0.037458 -0.995645 0.085374
vn 0.037458 -0.995645 0.085374
vn 0.000000 -0.995970 0.089689
vn 0.000000 -0.995970 0.089689
vn 0.000000 -0.995970 0.089689
vn 0.000000 -0.995970 0.089689
vn -0.037458 -0.995645 0.085374
vn -0.037458 -0.995645 0.085374
vn -0.037458 -0.995645 0.085374
vn -0.037458 -0.995645 0.085374
vn -0.121004 -0.992652 0.000000
vn -0.121004 -0.992652 0.000000
vn -0.121004 -0.992652 0.000000
vn -0.121004 -0.992652 0.000000
s off
g pCube1
usemtl mia_material_x1SG
f 4/9/1 2/19/2 6/10/3 8/22/4
f 12/14/5 10/23/6 13/15/7 16/26/8
f 7/16/9 5/21/10 15/17/11 14/18/12
f 9/11/13 11/12/14 1/13/15 3/20/16
f 58/67/17 57/68/18 59/69/19 60/70/20 61/71/21 62/72/22 63/73/23 64/74/24
f 66/75/25 65/76/26 67/77/27 68/78/28 69/79/29 70/80/30 71/81/31 72/82/32
f 1/13/33 2/19/34 4/9/35 3/20/36
f 6/10/37 5/21/38 7/16/39 8/22/40
f 9/3/41 10/23/42 12/14/43 11/24/44
f 13/15/45 14/25/46 15/4/47 16/26/48
s 1
f 3/1/49 4/9/50 17/28/51 18/27/52
s off
f 4/9/53 8/22/54 19/29/55 17/28/56
s 2
f 8/22/57 7/2/58 20/30/59 19/29/60
f 7/2/58 14/25/61 21/31/62 20/30/59
f 14/25/61 13/15/63 22/32/64 21/31/62
s off
f 13/15/65 10/23/66 23/33/67 22/32/68
s 1
f 10/23/69 9/3/70 24/34/71 23/33/72
f 9/3/70 3/1/49 18/27/52 24/34/71
s 3
f 18/27/73 17/28/74 25/36/75 26/35/76
s 4
f 17/28/77 19/29/78 27/37/79 25/36/80
s 5
f 19/29/81 20/30/82 28/38/83 27/37/84
f 20/30/82 21/31/85 29/39/86 28/38/83
f 21/31/85 22/32/87 30/40/88 29/39/86
s 6
f 22/32/89 23/33/90 31/41/91 30/40/92
s 3
f 23/33/93 24/34/94 32/42/95 31/41/96
f 24/34/94 18/27/73 26/35/76 32/42/95
s 7
f 26/35/97 25/36/98 33/44/99 34/43/100
s 4
f 25/36/80 27/37/79 35/45/101 33/44/102
s 8
f 27/37/103 28/38/104 36/46/105 35/45/106
f 28/38/104 29/39/107 37/47/108 36/46/105
f 29/39/107 30/40/109 38/48/110 37/47/108
s 6
f 30/40/92 31/41/91 39/49/111 38/48/112
s 7
f 31/41/113 32/42/114 40/50/115 39/49/116
f 32/42/114 26/35/97 34/43/100 40/50/115
f 34/43/100 33/44/99 41/52/117 42/51/118
s 4
f 33/44/102 35/45/101 43/53/119 41/52/120
s 8
f 35/45/106 36/46/105 44/54/121 43/53/122
f 36/46/105 37/47/108 45/55/123 44/54/121
f 37/47/108 38/48/110 46/56/124 45/55/123
s 6
f 38/48/112 39/49/111 47/57/125 46/56/126
s 7
f 39/49/116 40/50/115 48/58/127 47/57/128
f 40/50/115 34/43/100 42/51/118 48/58/127
s 9
f 42/51/129 41/52/130 49/60/131 50/59/132
s 4
f 41/52/120 43/53/119 51/61/133 49/60/134
s 10
f 43/53/135 44/54/136 52/62/137 51/61/138
f 44/54/136 45/55/139 53/63/140 52/62/137
f 45/55/139 46/56/141 54/64/142 53/63/140
s 6
f 46/56/126 47/57/125 55/65/143 54/64/144
s 9
f 47/57/145 48/58/146 56/66/147 55/65/148
f 48/58/146 42/51/129 50/59/132 56/66/147
s 11
f 50/59/149 49/60/150 57/68/151 58/67/152
s off
f 49/60/153 51/61/154 59/69/155 57/68/156
s 12
f 51/61/157 52/62/158 60/70/159 59/69/160
f 52/62/158 53/63/161 61/71/162 60/70/159
f 53/63/161 54/64/163 62/72/164 61/71/162
s off
f 54/64/165 55/65/166 63/73/167 62/72/168
s 11
f 55/65/169 56/66/170 64/74/171 63/73/172
f 56/66/170 50/59/149 58/67/152 64/74/171
s off
f 11/24/173 12/14/174 65/76/175 66/75/176
f 12/14/177 16/26/178 67/77/179 65/76/180
f 16/26/181 15/4/182 68/78/183 67/77/184
f 15/4/185 5/5/186 69/79/187 68/78/188
f 5/5/189 6/6/190 70/80/191 69/79/192
f 6/6/193 2/7/194 71/81/195 70/80/196
f 2/7/197 1/8/198 72/82/199 71/81/200
f 1/8/201 11/24/202 66/75/203 72/82/204
