# This file uses centimeters as units for non-parametric coordinates.

mtllib light_left.mtl
g default
v -2.508399 1.422179 2.571355
v -1.871613 4.297353 2.061600
v -2.525791 1.476825 2.857847
v -1.889005 4.351999 2.348092
v -5.440380 2.070882 2.567604
v -4.803594 4.946055 2.057849
v -5.422988 2.016236 2.281112
v -4.786202 4.891410 1.771357
vt 0.375000 0.000000
vt 0.625000 0.000000
vt 0.625000 0.250000
vt 0.375000 0.250000
vt 0.625000 0.500000
vt 0.375000 0.500000
vt 0.625000 0.750000
vt 0.375000 0.750000
vt 0.625000 1.000000
vt 0.375000 1.000000
vt 0.875000 0.000000
vt 0.875000 0.250000
vt 0.125000 0.000000
vt 0.125000 0.250000
vn 0.975222 -0.198772 0.097116
vn 0.975222 -0.198772 0.097116
vn 0.975222 -0.198772 0.097116
vn 0.975222 -0.198772 0.097116
vn -0.059525 0.187030 0.980549
vn -0.059525 0.187030 0.980549
vn -0.059525 0.187030 0.980549
vn -0.059525 0.187030 0.980549
vn -0.975222 0.198772 -0.097116
vn -0.975222 0.198772 -0.097116
vn -0.975222 0.198772 -0.097116
vn -0.975222 0.198772 -0.097116
vn 0.059525 -0.187030 -0.980549
vn 0.059525 -0.187030 -0.980549
vn 0.059525 -0.187030 -0.980549
vn 0.059525 -0.187030 -0.980549
vn 0.213069 0.962034 -0.170564
vn 0.213069 0.962034 -0.170564
vn 0.213069 0.962034 -0.170564
vn 0.213069 0.962034 -0.170564
vn -0.213069 -0.962034 0.170564
vn -0.213069 -0.962034 0.170564
vn -0.213069 -0.962034 0.170564
vn -0.213069 -0.962034 0.170564
s off
g light2
usemtl light:initialShadingGroup
f 1/1/1 2/2/2 4/3/3 3/4/4
f 3/4/5 4/3/6 6/5/7 5/6/8
f 5/6/9 6/5/10 8/7/11 7/8/12
f 7/8/13 8/7/14 2/9/15 1/10/16
f 2/2/17 8/11/18 6/12/19 4/3/20
f 7/13/21 1/1/22 3/4/23 5/14/24
