# Blender v2.79 (sub 0) OBJ File: 'Low-poly Crystals.blend'
# www.blender.org
mtllib Low-poly Crystals.mtl
o Plane.001_Plane.005
v -4.203448 0.000000 2.577396
v 4.203448 0.000000 2.577396
v -4.203448 0.000000 -2.577396
v 4.203448 0.000000 -2.577396
v -1.155561 3.920280 -0.443182
v -1.179620 3.740936 -1.385014
v -1.186920 4.090990 -0.810313
v -1.148283 3.934979 -0.437587
v -0.454113 4.369890 -1.844507
v -0.587540 4.477367 -1.752952
v 0.424099 3.708130 -1.493605
v 0.487820 3.434252 -0.592295
v -0.534408 5.058307 -0.968579
v -0.025505 4.415562 -1.624163
v -0.310308 3.635150 -0.058605
v -0.926454 4.630608 -0.629805
v -0.985479 4.422515 -0.544954
v -0.917794 3.958752 -0.319199
v -0.583651 5.096050 -0.780816
v -0.020030 4.133992 -0.234641
v 0.268050 2.086133 2.029228
v 0.272605 2.077951 2.404352
v 0.564642 2.230429 1.910979
v 0.836003 2.257601 2.089159
v 0.590734 2.431574 2.081278
v 0.648382 1.546543 1.956580
v 0.465579 1.818424 2.375443
v 0.373302 2.453870 2.558927
v 0.343849 2.342153 2.539454
v 0.461068 1.831240 2.379885
v 0.802155 2.870230 2.542190
v 0.942113 2.640457 2.446008
v 0.891117 2.447032 2.412293
v 0.703852 2.014634 2.357430
v 0.563911 2.227875 1.909200
v 0.514687 2.350164 2.069011
v 0.583049 2.232272 1.923064
v 0.849375 2.305848 2.134130
v 0.901614 2.486844 2.419232
v 0.586029 2.660399 2.550625
v 1.851072 3.241838 1.515247
v 1.235764 3.032604 1.462727
v 1.591595 2.554864 1.677142
v 1.296069 2.786910 1.653410
v 1.846019 2.665626 1.554643
v 1.793076 3.193858 1.913669
v 1.373351 3.511302 1.801345
v 1.422118 3.635895 1.925550
v 1.489115 3.137932 1.337740
v 1.853446 3.267154 1.525833
v 1.872252 4.266225 2.101526
v 1.875099 3.326150 1.574314
v 1.930721 4.031728 2.010744
v 1.947037 3.554203 1.753423
v 1.681644 3.576066 1.578589
v 1.314078 3.204790 1.508569
v 1.417282 3.598032 1.812617
v 1.477514 3.349281 1.474252
v 1.703016 3.842143 1.743449
v 1.754166 4.027528 1.883881
v 1.875882 4.336957 2.162909
v 1.912549 4.243738 2.148284
v 1.842298 3.824327 2.102568
v 1.689456 4.206414 2.162734
v 1.703028 4.232859 2.164834
v 1.809863 4.353435 2.170579
v 3.038466 2.150227 -0.358585
v 3.757429 3.633984 -1.102836
v 4.168774 3.669904 -1.099983
v 3.530240 1.942109 -1.359933
v 3.693866 2.170801 -0.692367
v 3.945108 2.728407 -0.615409
v 4.106114 3.142133 -0.825024
v 2.598491 2.430744 -0.692367
v 2.708182 2.584054 -1.359933
v 3.328006 3.221613 -1.445196
v 3.746625 3.627721 -1.108024
v 3.358866 3.252683 -1.438587
v 3.738563 3.618737 -1.095796
v 2.858912 2.694066 -0.654848
v 4.026402 3.101025 -1.473054
v 3.928996 2.885008 -1.503659
v 3.427718 3.225678 -1.469839
v 2.681405 1.651181 -1.693716
v 3.352272 3.162694 -1.479800
v 4.064981 3.301785 -1.445756
v -2.163810 2.011106 -1.491572
v -3.313003 2.478117 -1.008026
v -3.529837 2.949308 -1.206957
v -3.409065 2.971941 -0.940129
v -3.465107 2.808645 -1.491572
v -2.785944 3.363034 -1.257706
v -3.129137 3.939805 -1.289096
v -3.441816 3.112214 -0.923670
v -3.455157 2.858978 -1.508709
v -2.847214 2.481055 -1.733345
v -2.239878 2.176406 -1.008026
v -2.533874 1.800153 -0.766252
v -2.616615 2.995073 -1.133280
v -3.156596 2.791804 -0.852364
v -3.654662 3.941108 -0.961661
v -3.145598 3.677983 -1.114628
v -3.321857 4.196045 -1.336282
v -3.257185 4.126972 -1.290770
v -3.508864 4.283515 -1.167198
v -3.556751 3.007794 -1.241691
v -3.549738 2.992554 -1.390267
v -3.737396 3.946109 -0.977951
v -3.738571 4.084732 -0.983262
v -3.674052 4.386285 -1.150309
v -2.917914 2.879614 -1.675011
v -3.480065 3.059674 -1.489542
v -2.921945 2.827044 -1.689618
v -3.405186 4.257641 -1.378419
v -3.662926 4.403109 -1.274768
v -3.515028 3.165902 -1.449888
v -3.006536 2.099646 2.191233
v -3.126418 1.602050 1.378394
v -3.342242 2.675042 1.966074
v -3.076067 3.110252 2.515188
v -3.271904 2.759938 2.084748
v -3.043214 2.158850 2.207423
v -3.288031 2.680948 2.030444
v -3.228333 2.170588 1.929516
v -3.108634 3.219023 2.499510
v -3.166956 3.068337 2.360809
v -2.537161 1.774903 1.036330
v -2.648401 2.590581 1.882309
v -2.900417 2.458250 1.568156
v -2.918937 2.877887 2.028738
v -2.679614 0.748657 0.270574
v -3.339600 2.604493 1.876529
v -3.333297 2.122945 1.479695
v -2.970722 2.354292 1.493261
v -2.353851 2.065870 1.690579
v -2.520374 2.006178 2.097594
v -2.619682 2.220634 2.263795
v -2.524327 2.494053 1.957507
v -2.778016 2.826439 2.448016
v -1.630327 0.815116 0.520156
v -1.769855 2.034312 0.778400
v -1.250274 0.827423 0.925511
v -1.611183 0.897040 0.862244
v -1.810669 1.300250 0.893223
v -1.841639 1.639574 0.948068
v -1.472336 1.061229 0.344826
v -1.243937 1.278342 0.482714
v -1.458385 1.773876 0.693616
v -1.764365 2.030252 0.775213
v -1.473493 1.796395 0.702444
v -1.766114 2.021600 0.770755
v -1.592376 1.254881 0.422132
v -1.466702 1.783030 0.741320
v -0.894055 0.644612 0.638551
v -1.435222 1.736544 0.717156
v -1.848278 2.068336 0.947003
v -1.852109 2.056731 0.955717
v -1.661795 1.680191 0.993211
v -1.383900 1.272366 0.977877
v -1.502469 1.800189 0.809795
v -1.305852 1.295210 0.905766
v -0.653155 0.000000 0.150023
v -0.596150 0.000000 0.470790
v -0.074022 0.000000 0.357962
v 0.190532 0.000000 0.515261
v -0.867882 -0.000000 0.710172
v -0.302329 0.000000 0.522370
v 0.225534 0.000000 0.839478
v -0.295537 0.000000 0.903402
v -0.031605 0.000000 1.061957
v -2.183766 -0.000000 -1.248455
v -2.045298 0.000000 -1.655418
v -1.992333 0.000000 -0.325931
v -1.719708 0.000001 0.104997
v -1.257494 0.000000 -1.008307
v -1.698147 0.000000 -0.769069
v -2.183079 0.000000 -1.010069
v -0.981892 0.000000 0.068639
v -1.253624 0.000000 0.308021
v -1.196619 0.000000 0.628787
v -2.449804 -0.000000 -0.304030
v -2.634650 -0.000000 0.148799
v -1.904554 0.000000 0.557826
v -2.362025 0.000000 0.579728
v 1.500006 -0.000000 -1.693716
v 2.288264 0.000000 -1.497609
v 0.859327 0.000001 -0.970469
v 0.859326 -0.000000 -1.359933
v 2.146000 -0.000000 -0.693680
v 1.499572 0.000000 -0.358147
v 0.859326 0.000000 -0.692368
v 0.868605 0.000000 -0.098574
v 1.210016 0.000000 0.031371
v 0.636083 0.000000 0.074623
v 1.318906 0.000000 0.334515
v 0.744972 -0.000000 0.377767
v 1.086384 0.000000 0.507712
v 0.667684 0.000000 -1.825148
v -0.957305 0.000000 -2.076883
v 0.788352 0.000000 -0.899350
v -0.158579 0.000000 -0.383623
v -0.071703 0.000001 -2.235217
v -0.852250 0.000000 -1.719490
v -1.193350 0.000000 -1.531187
v -0.875821 0.000000 -0.793693
v -0.883228 0.000000 -0.941393
vn -0.4577 0.3343 0.8239
vn 0.8300 0.5473 0.1076
vn 0.2206 0.7766 -0.5901
vn -0.1648 0.4121 0.8961
vn -0.9030 0.3549 0.2421
vn -0.8105 0.4956 -0.3122
vn 0.4169 0.5552 -0.7196
vn 0.4720 0.4089 -0.7810
vn -0.5299 0.5869 -0.6122
vn 0.2622 -0.2324 0.9366
vn 0.8380 -0.4088 0.3614
vn -0.3468 -0.3512 0.8697
vn -0.6634 0.6699 -0.3333
vn 0.9676 -0.2521 -0.0172
vn 0.4169 0.5552 -0.7197
vn 0.8181 0.1549 -0.5539
vn -0.6204 0.5751 -0.5332
vn -0.8296 0.4611 -0.3148
vn -0.1621 0.5291 -0.8329
vn 0.8881 -0.1942 0.4166
vn 0.7826 0.3846 -0.4895
vn 0.5235 0.4180 -0.7424
vn 0.0749 0.6514 -0.7550
vn -0.8798 0.4608 -0.1168
vn -0.2755 -0.2561 0.9266
vn 0.0845 -0.1219 0.9889
vn -0.5647 0.7972 0.2134
vn -0.7134 0.6994 0.0434
vn -0.0468 0.4659 0.8836
vn 0.0219 0.1306 -0.9912
vn -0.0554 0.6918 -0.7199
vn -0.2339 0.4190 -0.8774
vn 0.9127 -0.3992 -0.0869
vn 0.9788 -0.1732 -0.1094
vn 0.7872 0.5358 -0.3054
vn -0.8795 -0.2285 0.4175
vn 0.3652 0.2787 0.8882
vn -0.3087 0.1083 -0.9450
vn 0.4016 0.3441 0.8487
vn -0.8721 -0.2722 0.4066
vn 0.6243 0.4374 0.6472
vn 0.6439 0.3862 -0.6605
vn 0.5482 0.8158 0.1843
vn -0.3181 0.0509 -0.9467
vn -0.2450 -0.0166 0.9694
vn -0.9539 -0.0575 -0.2947
vn -0.8038 -0.0431 -0.5933
vn -0.7194 -0.2878 0.6322
vn -0.3228 0.5511 -0.7695
vn -0.8193 -0.2010 0.5369
vn 0.3988 0.6858 -0.6088
vn 0.9126 0.1196 0.3909
vn -0.9126 -0.3046 0.2728
vn -0.2768 0.7203 -0.6360
vn 0.7146 0.6908 -0.1101
vn -0.0810 -0.3093 0.9475
vn -0.1504 0.4766 -0.8662
vn 0.1259 0.4341 -0.8920
vn 0.5729 0.3627 0.7350
vn 0.8371 0.5454 0.0413
vn 0.8507 0.3968 0.3449
vn -0.2025 -0.1742 0.9636
vn -0.2383 -0.0238 0.9709
vn -0.9078 -0.0151 -0.4192
vn 0.6418 0.7527 0.1466
vn -0.9969 -0.0786 0.0090
vn -0.5511 0.0263 -0.8340
vn 0.7021 0.5565 -0.4442
vn -0.8804 -0.4476 0.1565
vn 0.8182 0.5235 -0.2379
vn 0.9714 -0.2301 -0.0588
vn -0.9009 -0.4205 -0.1073
vn -0.0382 0.6010 -0.7983
vn 0.6571 0.1095 0.7458
vn -0.2258 -0.3418 0.9122
vn 0.5140 -0.0428 0.8567
vn -0.4387 0.3139 -0.8420
vn -0.4389 0.3142 0.8418
vn 0.8240 -0.5615 0.0753
vn -0.8133 0.5819 -0.0000
vn -0.9676 0.2521 0.0172
vn -0.4444 -0.2050 0.8721
vn -0.7021 -0.5565 0.4442
vn 0.4382 -0.3132 0.8425
vn 0.5297 -0.5870 0.6122
vn -0.9481 -0.1080 -0.2992
vn -0.3350 -0.3366 0.8801
vn 0.4687 0.4107 -0.7820
vn -0.3841 -0.1530 -0.9105
vn 0.9258 -0.0059 0.3779
vn 0.9926 0.0835 -0.0877
vn 0.0000 1.0000 0.0000
vn 0.3350 0.3366 -0.8801
vn 0.9061 0.4208 0.0432
vn 0.4585 0.2090 0.8638
vn 0.2258 0.3418 -0.9122
vn 0.0382 -0.6010 0.7983
vn -0.4656 -0.1054 0.8787
vn -0.4645 -0.4315 0.7733
vn 0.4600 0.1146 -0.8805
vn 0.9407 -0.0314 -0.3379
vn 0.5374 -0.4365 0.7215
vn -0.5374 0.4365 -0.7215
vn -0.6571 -0.1095 -0.7458
vn 0.8804 0.4476 -0.1565
vn -0.9407 0.0314 0.3379
vn 0.3575 -0.2177 -0.9082
vn -0.5037 0.5891 -0.6318
usemtl Crystel
s off
f 18//1 17//1 8//1
f 19//2 20//2 12//2 11//2 14//2 13//2
f 9//3 10//3 13//3 14//3
f 17//4 18//4 15//4 20//4 19//4 16//4
f 8//5 17//5 16//5 7//5 5//5
f 13//6 10//6 6//6 7//6 16//6 19//6
f 38//7 24//7 37//7
f 35//8 23//8 37//8
f 35//9 36//9 25//9 23//9
f 40//10 39//10 32//10 31//10
f 33//11 34//11 26//11
f 30//12 29//12 22//12
f 40//13 31//13 25//13 36//13
f 39//14 38//14 32//14
f 34//10 33//10 39//10 40//10 28//10 29//10 30//10 27//10
f 32//15 38//15 37//15 23//15 25//15 31//15
f 28//13 40//13 36//13 21//13
f 50//16 52//16 41//16
f 66//17 60//17 59//17 58//17 56//17 57//17 65//17
f 57//18 56//18 42//18 47//18
f 58//19 59//19 55//19 49//19
f 63//20 46//20 45//20 54//20 53//20 62//20
f 62//21 53//21 51//21 61//21
f 54//22 52//22 50//22 55//22 59//22 60//22 51//22 53//22
f 61//23 51//23 60//23 66//23
f 48//24 64//24 65//24 57//24 47//24
f 46//25 63//25 64//25 48//25 44//25 43//25
f 62//26 61//26 66//26 65//26 64//26 63//26
f 79//27 68//27 77//27
f 76//28 75//28 74//28 80//28 79//28 77//28 78//28
f 68//29 79//29 80//29 67//29 72//29 73//29 69//29
f 83//30 86//30 81//30 82//30 84//30 85//30
f 78//31 77//31 68//31 69//31 86//31 83//31
f 78//32 83//32 85//32 76//32
f 73//33 72//33 71//33 70//33 82//33 81//33
f 73//34 81//34 86//34 69//34
f 104//35 93//35 103//35
f 90//36 89//36 88//36
f 101//37 100//37 98//37 97//37 99//37 102//37
f 112//38 116//38 115//38 114//38 111//38 113//38
f 110//39 109//39 101//39 102//39 105//39
f 108//40 106//40 89//40 90//40 94//40
f 93//41 104//41 105//41 102//41 99//41 92//41
f 111//42 114//42 103//42 93//42 92//42 87//42
f 114//43 115//43 110//43 105//43 104//43 103//43
f 112//44 113//44 96//44 95//44
f 101//45 109//45 108//45 94//45 100//45
f 115//46 116//46 107//46 106//46 108//46 109//46 110//46
f 107//47 116//47 112//47 95//47 91//47
f 121//48 119//48 123//48
f 133//49 132//49 134//49 131//49
f 126//50 121//50 123//50 124//50 122//50 120//50 125//50
f 129//51 130//51 128//51 127//51
f 139//52 137//52 136//52 135//52 138//52
f 124//53 123//53 119//53 132//53 133//53 118//53
f 119//54 121//54 126//54 125//54 130//54 129//54 134//54 132//54
f 120//55 139//55 138//55 128//55 130//55 125//55
f 120//56 122//56 117//56 137//56 139//56
f 151//57 141//57 149//57
f 148//58 147//58 146//58 152//58 151//58 149//58 150//58
f 160//59 156//59 157//59 158//59 159//59 161//59
f 150//60 153//60 155//60 148//60
f 153//61 160//61 161//61 154//61 155//61
f 145//62 144//62 143//62 142//62 159//62 158//62
f 145//63 158//63 157//63
f 141//64 151//64 152//64 140//64 144//64 145//64 157//64 156//64
f 150//65 149//65 141//65 156//65 160//65 153//65
f 203//66 206//66 205//66 5//66 7//66 6//66
f 202//67 203//67 6//67 10//67 9//67
f 174//68 173//68 127//68 128//68 138//68 135//68
f 179//69 180//69 143//69 144//69 140//69
f 204//70 199//70 96//70 113//70 111//70 87//70
f 168//71 165//71 24//71 38//71 39//71 33//71 26//71
f 172//72 171//72 177//72 88//72 89//72 106//72 107//72 91//72
f 173//73 181//73 131//73 134//73 129//73 127//73
f 166//74 163//74 154//74 161//74 159//74 142//74
f 180//75 166//75 142//75 143//75
f 201//76 200//76 12//76 20//76 15//76
f 185//77 188//77 75//77 76//77 85//77 84//77
f 191//78 190//78 67//78 80//78 74//78
f 189//79 186//79 70//79 71//79
f 188//80 187//80 191//80 74//80 75//80
f 167//81 169//81 22//81 29//81 28//81 21//81
f 177//82 176//82 98//82 100//82 94//82 90//82 88//82
f 182//83 184//83 117//83 122//83 124//83 118//83
f 190//84 189//84 71//84 72//84 67//84
f 170//85 168//85 26//85 34//85 27//85
f 181//86 182//86 118//86 133//86 131//86
f 196//87 197//87 43//87 44//87
f 165//88 164//88 35//88 37//88 24//88
f 199//89 172//89 91//89 95//89 96//89
f 183//90 174//90 135//90 136//90
f 200//91 198//91 11//91 12//91
f 195//92 193//92 192//92 194//92 196//92 197//92
f 172//92 171//92 177//92 176//92 175//92 204//92 199//92
f 206//92 205//92 201//92 200//92 198//92 202//92 203//92
f 188//92 187//92 191//92 190//92 189//92 186//92 185//92
f 182//92 184//92 183//92 174//92 173//92 181//92
f 179//92 180//92 166//92 163//92 162//92 178//92
f 167//92 169//92 170//92 168//92 165//92 164//92
f 193//93 192//93 49//93 55//93 50//93 41//93
f 175//94 204//94 87//94 92//94 99//94 97//94
f 176//95 175//95 97//95 98//95
f 162//96 178//96 146//96 147//96
f 184//97 183//97 136//97 137//97 117//97
f 205//98 201//98 15//98 18//98 8//98 5//98
f 169//99 170//99 27//99 30//99 22//99
f 198//100 202//100 9//100 14//100 11//100
f 195//101 193//101 41//101 52//101 54//101 45//101
f 197//102 195//102 45//102 46//102 43//102
f 192//103 194//103 42//103 56//103 58//103 49//103
f 178//104 179//104 140//104 152//104 146//104
f 163//105 162//105 147//105 148//105 155//105 154//105
f 194//106 196//106 44//106 48//106 47//106 42//106
f 186//107 185//107 84//107 82//107 70//107
f 164//108 167//108 21//108 36//108 35//108
usemtl Material
f 1//92 2//92 4//92 3//92
